solid uv_sphere
  facet normal -0.15635878599212977 -0.9872105218905594 -0.031101696282303866
    outer loop
      vertex 0.0 1.0 0.0
      vertex 0.3090169943749474 0.9510565162951535 0.0
      vertex 0.2854944763011693 0.9510565162951535 0.11825568406654852
    endloop
  endfacet
  facet normal -0.13255457822075267 -0.9872105218905594 -0.08857013752550966
    outer loop
      vertex 0.0 1.0 0.0
      vertex 0.2854944763011693 0.9510565162951535 0.11825568406654852
      vertex 0.21850801222441052 0.9510565162951535 0.2185080122244105
    endloop
  endfacet
  facet normal -0.08857013752550963 -0.9872105218905594 -0.1325545782207526
    outer loop
      vertex 0.0 1.0 0.0
      vertex 0.21850801222441052 0.9510565162951535 0.2185080122244105
      vertex 0.11825568406654853 0.9510565162951535 0.2854944763011693
    endloop
  endfacet
  facet normal -0.03110169628230387 -0.9872105218905594 -0.1563587859921298
    outer loop
      vertex 0.0 1.0 0.0
      vertex 0.11825568406654853 0.9510565162951535 0.2854944763011693
      vertex 1.892183365217075e-17 0.9510565162951535 0.3090169943749474
    endloop
  endfacet
  facet normal 0.031101696282303866 -0.9872105218905594 -0.15635878599212977
    outer loop
      vertex 0.0 1.0 0.0
      vertex 1.892183365217075e-17 0.9510565162951535 0.3090169943749474
      vertex -0.11825568406654849 0.9510565162951535 0.2854944763011693
    endloop
  endfacet
  facet normal 0.08857013752550963 -0.9872105218905594 -0.13255457822075264
    outer loop
      vertex -0.0 1.0 0.0
      vertex -0.11825568406654849 0.9510565162951535 0.2854944763011693
      vertex -0.2185080122244105 0.9510565162951535 0.21850801222441052
    endloop
  endfacet
  facet normal 0.1325545782207526 -0.9872105218905594 -0.08857013752550964
    outer loop
      vertex -0.0 1.0 0.0
      vertex -0.2185080122244105 0.9510565162951535 0.21850801222441052
      vertex -0.2854944763011693 0.9510565162951535 0.11825568406654854
    endloop
  endfacet
  facet normal 0.1563587859921298 -0.9872105218905594 -0.03110169628230387
    outer loop
      vertex -0.0 1.0 0.0
      vertex -0.2854944763011693 0.9510565162951535 0.11825568406654854
      vertex -0.3090169943749474 0.9510565162951535 3.78436673043415e-17
    endloop
  endfacet
  facet normal 0.15635878599212977 -0.9872105218905594 0.031101696282303772
    outer loop
      vertex -0.0 1.0 0.0
      vertex -0.3090169943749474 0.9510565162951535 3.78436673043415e-17
      vertex -0.28549447630116936 0.9510565162951535 -0.11825568406654847
    endloop
  endfacet
  facet normal 0.13255457822075264 -0.9872105218905594 0.08857013752550962
    outer loop
      vertex -0.0 1.0 -0.0
      vertex -0.28549447630116936 0.9510565162951535 -0.11825568406654847
      vertex -0.21850801222441057 0.9510565162951535 -0.2185080122244105
    endloop
  endfacet
  facet normal 0.08857013752550964 -0.9872105218905594 0.13255457822075256
    outer loop
      vertex -0.0 1.0 -0.0
      vertex -0.21850801222441057 0.9510565162951535 -0.2185080122244105
      vertex -0.11825568406654868 0.9510565162951535 -0.28549447630116925
    endloop
  endfacet
  facet normal 0.031101696282303883 -0.9872105218905594 0.15635878599212977
    outer loop
      vertex -0.0 1.0 -0.0
      vertex -0.11825568406654868 0.9510565162951535 -0.28549447630116925
      vertex -5.676550095651224e-17 0.9510565162951535 -0.3090169943749474
    endloop
  endfacet
  facet normal -0.031101696282303835 -0.9872105218905594 0.15635878599212977
    outer loop
      vertex -0.0 1.0 -0.0
      vertex -5.676550095651224e-17 0.9510565162951535 -0.3090169943749474
      vertex 0.11825568406654859 0.9510565162951535 -0.2854944763011693
    endloop
  endfacet
  facet normal -0.08857013752550963 -0.9872105218905594 0.13255457822075262
    outer loop
      vertex 0.0 1.0 -0.0
      vertex 0.11825568406654859 0.9510565162951535 -0.2854944763011693
      vertex 0.21850801222441046 0.9510565162951535 -0.21850801222441057
    endloop
  endfacet
  facet normal -0.13255457822075253 -0.9872105218905594 0.0885701375255097
    outer loop
      vertex 0.0 1.0 -0.0
      vertex 0.21850801222441046 0.9510565162951535 -0.21850801222441057
      vertex 0.28549447630116925 0.9510565162951535 -0.1182556840665487
    endloop
  endfacet
  facet normal -0.15635878599212977 -0.9872105218905594 0.031101696282303883
    outer loop
      vertex 0.0 1.0 -0.0
      vertex 0.28549447630116925 0.9510565162951535 -0.1182556840665487
      vertex 0.3090169943749474 0.9510565162951535 -7.5687334608683e-17
    endloop
  endfacet
  facet normal 0.45215062805173417 0.8873955726850861 0.08993835183796971
    outer loop
      vertex 0.3090169943749474 0.9510565162951535 0.0
      vertex 0.2854944763011693 0.9510565162951535 0.11825568406654852
      vertex 0.5430427641049989 0.8090169943749475 0.22493567784086388
    endloop
  endfacet
  facet normal 0.4521506280517343 0.8873955726850861 0.08993835183796965
    outer loop
      vertex 0.3090169943749474 0.9510565162951535 0.0
      vertex 0.5430427641049989 0.8090169943749475 0.22493567784086388
      vertex 0.5877852522924731 0.8090169943749475 0.0
    endloop
  endfacet
  facet normal 0.3833147936865076 0.8873955726850861 0.2561227567397677
    outer loop
      vertex 0.2854944763011693 0.9510565162951535 0.11825568406654852
      vertex 0.21850801222441052 0.9510565162951535 0.2185080122244105
      vertex 0.41562693777745346 0.8090169943749475 0.4156269377774534
    endloop
  endfacet
  facet normal 0.3833147936865075 0.8873955726850861 0.25612275673976775
    outer loop
      vertex 0.2854944763011693 0.9510565162951535 0.11825568406654852
      vertex 0.41562693777745346 0.8090169943749475 0.4156269377774534
      vertex 0.5430427641049989 0.8090169943749475 0.22493567784086388
    endloop
  endfacet
  facet normal 0.2561227567397678 0.8873955726850861 0.3833147936865076
    outer loop
      vertex 0.21850801222441052 0.9510565162951535 0.2185080122244105
      vertex 0.11825568406654853 0.9510565162951535 0.2854944763011693
      vertex 0.2249356778408639 0.8090169943749475 0.5430427641049989
    endloop
  endfacet
  facet normal 0.25612275673976775 0.8873955726850861 0.3833147936865076
    outer loop
      vertex 0.21850801222441052 0.9510565162951535 0.2185080122244105
      vertex 0.2249356778408639 0.8090169943749475 0.5430427641049989
      vertex 0.41562693777745346 0.8090169943749475 0.4156269377774534
    endloop
  endfacet
  facet normal 0.08993835183796973 0.8873955726850861 0.45215062805173434
    outer loop
      vertex 0.11825568406654853 0.9510565162951535 0.2854944763011693
      vertex 1.892183365217075e-17 0.9510565162951535 0.3090169943749474
      vertex 3.599146639029983e-17 0.8090169943749475 0.5877852522924731
    endloop
  endfacet
  facet normal 0.08993835183796964 0.887395572685086 0.4521506280517342
    outer loop
      vertex 0.11825568406654853 0.9510565162951535 0.2854944763011693
      vertex 3.599146639029983e-17 0.8090169943749475 0.5877852522924731
      vertex 0.2249356778408639 0.8090169943749475 0.5430427641049989
    endloop
  endfacet
  facet normal -0.08993835183796972 0.8873955726850861 0.4521506280517341
    outer loop
      vertex 1.892183365217075e-17 0.9510565162951535 0.3090169943749474
      vertex -0.11825568406654849 0.9510565162951535 0.2854944763011693
      vertex -0.22493567784086385 0.8090169943749475 0.5430427641049989
    endloop
  endfacet
  facet normal -0.08993835183796964 0.887395572685086 0.4521506280517342
    outer loop
      vertex 1.892183365217075e-17 0.9510565162951535 0.3090169943749474
      vertex -0.22493567784086385 0.8090169943749475 0.5430427641049989
      vertex 3.599146639029983e-17 0.8090169943749475 0.5877852522924731
    endloop
  endfacet
  facet normal -0.2561227567397677 0.8873955726850861 0.38331479368650767
    outer loop
      vertex -0.11825568406654849 0.9510565162951535 0.2854944763011693
      vertex -0.2185080122244105 0.9510565162951535 0.21850801222441052
      vertex -0.4156269377774534 0.8090169943749475 0.41562693777745346
    endloop
  endfacet
  facet normal -0.25612275673976775 0.8873955726850861 0.3833147936865075
    outer loop
      vertex -0.11825568406654849 0.9510565162951535 0.2854944763011693
      vertex -0.4156269377774534 0.8090169943749475 0.41562693777745346
      vertex -0.22493567784086385 0.8090169943749475 0.5430427641049989
    endloop
  endfacet
  facet normal -0.3833147936865075 0.8873955726850861 0.25612275673976775
    outer loop
      vertex -0.2185080122244105 0.9510565162951535 0.21850801222441052
      vertex -0.2854944763011693 0.9510565162951535 0.11825568406654854
      vertex -0.5430427641049989 0.8090169943749475 0.22493567784086393
    endloop
  endfacet
  facet normal -0.38331479368650756 0.8873955726850861 0.25612275673976775
    outer loop
      vertex -0.2185080122244105 0.9510565162951535 0.21850801222441052
      vertex -0.5430427641049989 0.8090169943749475 0.22493567784086393
      vertex -0.4156269377774534 0.8090169943749475 0.41562693777745346
    endloop
  endfacet
  facet normal -0.4521506280517343 0.8873955726850862 0.08993835183796975
    outer loop
      vertex -0.2854944763011693 0.9510565162951535 0.11825568406654854
      vertex -0.3090169943749474 0.9510565162951535 3.78436673043415e-17
      vertex -0.5877852522924731 0.8090169943749475 7.198293278059966e-17
    endloop
  endfacet
  facet normal -0.4521506280517342 0.8873955726850861 0.08993835183796965
    outer loop
      vertex -0.2854944763011693 0.9510565162951535 0.11825568406654854
      vertex -0.5877852522924731 0.8090169943749475 7.198293278059966e-17
      vertex -0.5430427641049989 0.8090169943749475 0.22493567784086393
    endloop
  endfacet
  facet normal -0.45215062805173434 0.8873955726850861 -0.08993835183796953
    outer loop
      vertex -0.3090169943749474 0.9510565162951535 3.78436673043415e-17
      vertex -0.28549447630116936 0.9510565162951535 -0.11825568406654847
      vertex -0.5430427641049989 0.8090169943749475 -0.22493567784086382
    endloop
  endfacet
  facet normal -0.4521506280517343 0.8873955726850861 -0.08993835183796965
    outer loop
      vertex -0.3090169943749474 0.9510565162951535 3.78436673043415e-17
      vertex -0.5430427641049989 0.8090169943749475 -0.22493567784086382
      vertex -0.5877852522924731 0.8090169943749475 7.198293278059966e-17
    endloop
  endfacet
  facet normal -0.38331479368650767 0.8873955726850861 -0.25612275673976764
    outer loop
      vertex -0.28549447630116936 0.9510565162951535 -0.11825568406654847
      vertex -0.21850801222441057 0.9510565162951535 -0.2185080122244105
      vertex -0.4156269377774535 0.8090169943749475 -0.4156269377774534
    endloop
  endfacet
  facet normal -0.38331479368650767 0.887395572685086 -0.2561227567397676
    outer loop
      vertex -0.28549447630116936 0.9510565162951535 -0.11825568406654847
      vertex -0.4156269377774535 0.8090169943749475 -0.4156269377774534
      vertex -0.5430427641049989 0.8090169943749475 -0.22493567784086382
    endloop
  endfacet
  facet normal -0.25612275673976787 0.8873955726850861 -0.3833147936865076
    outer loop
      vertex -0.21850801222441057 0.9510565162951535 -0.2185080122244105
      vertex -0.11825568406654868 0.9510565162951535 -0.28549447630116925
      vertex -0.2249356778408642 0.8090169943749475 -0.5430427641049986
    endloop
  endfacet
  facet normal -0.2561227567397677 0.8873955726850862 -0.38331479368650767
    outer loop
      vertex -0.21850801222441057 0.9510565162951535 -0.2185080122244105
      vertex -0.2249356778408642 0.8090169943749475 -0.5430427641049986
      vertex -0.4156269377774535 0.8090169943749475 -0.4156269377774534
    endloop
  endfacet
  facet normal -0.08993835183796986 0.887395572685086 -0.45215062805173417
    outer loop
      vertex -0.11825568406654868 0.9510565162951535 -0.28549447630116925
      vertex -5.676550095651224e-17 0.9510565162951535 -0.3090169943749474
      vertex -1.079743991708995e-16 0.8090169943749475 -0.5877852522924731
    endloop
  endfacet
  facet normal -0.08993835183796996 0.887395572685086 -0.4521506280517343
    outer loop
      vertex -0.11825568406654868 0.9510565162951535 -0.28549447630116925
      vertex -1.079743991708995e-16 0.8090169943749475 -0.5877852522924731
      vertex -0.2249356778408642 0.8090169943749475 -0.5430427641049986
    endloop
  endfacet
  facet normal 0.08993835183796964 0.887395572685086 -0.4521506280517343
    outer loop
      vertex -5.676550095651224e-17 0.9510565162951535 -0.3090169943749474
      vertex 0.11825568406654859 0.9510565162951535 -0.2854944763011693
      vertex 0.22493567784086402 0.8090169943749475 -0.5430427641049987
    endloop
  endfacet
  facet normal 0.08993835183796975 0.8873955726850861 -0.4521506280517343
    outer loop
      vertex -5.676550095651224e-17 0.9510565162951535 -0.3090169943749474
      vertex 0.22493567784086402 0.8090169943749475 -0.5430427641049987
      vertex -1.079743991708995e-16 0.8090169943749475 -0.5877852522924731
    endloop
  endfacet
  facet normal 0.2561227567397677 0.887395572685086 -0.38331479368650756
    outer loop
      vertex 0.11825568406654859 0.9510565162951535 -0.2854944763011693
      vertex 0.21850801222441046 0.9510565162951535 -0.21850801222441057
      vertex 0.41562693777745335 0.8090169943749475 -0.4156269377774535
    endloop
  endfacet
  facet normal 0.2561227567397678 0.8873955726850862 -0.3833147936865077
    outer loop
      vertex 0.11825568406654859 0.9510565162951535 -0.2854944763011693
      vertex 0.41562693777745335 0.8090169943749475 -0.4156269377774535
      vertex 0.22493567784086402 0.8090169943749475 -0.5430427641049987
    endloop
  endfacet
  facet normal 0.3833147936865075 0.887395572685086 -0.2561227567397679
    outer loop
      vertex 0.21850801222441046 0.9510565162951535 -0.21850801222441057
      vertex 0.28549447630116925 0.9510565162951535 -0.1182556840665487
      vertex 0.5430427641049986 0.8090169943749475 -0.22493567784086424
    endloop
  endfacet
  facet normal 0.38331479368650756 0.887395572685086 -0.25612275673976787
    outer loop
      vertex 0.21850801222441046 0.9510565162951535 -0.21850801222441057
      vertex 0.5430427641049986 0.8090169943749475 -0.22493567784086424
      vertex 0.41562693777745335 0.8090169943749475 -0.4156269377774535
    endloop
  endfacet
  facet normal 0.45215062805173417 0.887395572685086 -0.08993835183796986
    outer loop
      vertex 0.28549447630116925 0.9510565162951535 -0.1182556840665487
      vertex 0.3090169943749474 0.9510565162951535 -7.5687334608683e-17
      vertex 0.5877852522924731 0.8090169943749475 -1.4396586556119933e-16
    endloop
  endfacet
  facet normal 0.4521506280517343 0.887395572685086 -0.08993835183796996
    outer loop
      vertex 0.28549447630116925 0.9510565162951535 -0.1182556840665487
      vertex 0.5877852522924731 0.8090169943749475 -1.4396586556119933e-16
      vertex 0.5430427641049986 0.8090169943749475 -0.22493567784086424
    endloop
  endfacet
  facet normal 0.7002145072825531 0.7002145072825531 0.13928132531715334
    outer loop
      vertex 0.5877852522924731 0.8090169943749475 0.0
      vertex 0.5430427641049989 0.8090169943749475 0.22493567784086388
      vertex 0.7474342425568128 0.5877852522924731 0.30959740024909344
    endloop
  endfacet
  facet normal 0.7002145072825532 0.7002145072825532 0.13928132531715334
    outer loop
      vertex 0.5877852522924731 0.8090169943749475 0.0
      vertex 0.7474342425568128 0.5877852522924731 0.30959740024909344
      vertex 0.8090169943749475 0.5877852522924731 0.0
    endloop
  endfacet
  facet normal 0.5936131960090992 0.7002145072825532 0.3966396567602818
    outer loop
      vertex 0.5430427641049989 0.8090169943749475 0.22493567784086388
      vertex 0.41562693777745346 0.8090169943749475 0.4156269377774534
      vertex 0.5720614028176844 0.5877852522924731 0.5720614028176843
    endloop
  endfacet
  facet normal 0.5936131960090992 0.7002145072825531 0.39663965676028173
    outer loop
      vertex 0.5430427641049989 0.8090169943749475 0.22493567784086388
      vertex 0.5720614028176844 0.5877852522924731 0.5720614028176843
      vertex 0.7474342425568128 0.5877852522924731 0.30959740024909344
    endloop
  endfacet
  facet normal 0.3966396567602819 0.7002145072825531 0.5936131960090992
    outer loop
      vertex 0.41562693777745346 0.8090169943749475 0.4156269377774534
      vertex 0.2249356778408639 0.8090169943749475 0.5430427641049989
      vertex 0.3095974002490935 0.5877852522924731 0.7474342425568128
    endloop
  endfacet
  facet normal 0.3966396567602819 0.7002145072825531 0.593613196009099
    outer loop
      vertex 0.41562693777745346 0.8090169943749475 0.4156269377774534
      vertex 0.3095974002490935 0.5877852522924731 0.7474342425568128
      vertex 0.5720614028176844 0.5877852522924731 0.5720614028176843
    endloop
  endfacet
  facet normal 0.13928132531715334 0.7002145072825532 0.7002145072825531
    outer loop
      vertex 0.2249356778408639 0.8090169943749475 0.5430427641049989
      vertex 3.599146639029983e-17 0.8090169943749475 0.5877852522924731
      vertex 4.953800363085458e-17 0.5877852522924731 0.8090169943749475
    endloop
  endfacet
  facet normal 0.13928132531715337 0.7002145072825532 0.7002145072825531
    outer loop
      vertex 0.2249356778408639 0.8090169943749475 0.5430427641049989
      vertex 4.953800363085458e-17 0.5877852522924731 0.8090169943749475
      vertex 0.3095974002490935 0.5877852522924731 0.7474342425568128
    endloop
  endfacet
  facet normal -0.13928132531715334 0.7002145072825531 0.7002145072825531
    outer loop
      vertex 3.599146639029983e-17 0.8090169943749475 0.5877852522924731
      vertex -0.22493567784086385 0.8090169943749475 0.5430427641049989
      vertex -0.3095974002490934 0.5877852522924731 0.7474342425568128
    endloop
  endfacet
  facet normal -0.13928132531715331 0.7002145072825531 0.7002145072825531
    outer loop
      vertex 3.599146639029983e-17 0.8090169943749475 0.5877852522924731
      vertex -0.3095974002490934 0.5877852522924731 0.7474342425568128
      vertex 4.953800363085458e-17 0.5877852522924731 0.8090169943749475
    endloop
  endfacet
  facet normal -0.3966396567602818 0.7002145072825532 0.5936131960090993
    outer loop
      vertex -0.22493567784086385 0.8090169943749475 0.5430427641049989
      vertex -0.4156269377774534 0.8090169943749475 0.41562693777745346
      vertex -0.5720614028176843 0.5877852522924731 0.5720614028176844
    endloop
  endfacet
  facet normal -0.39663965676028173 0.7002145072825531 0.5936131960090992
    outer loop
      vertex -0.22493567784086385 0.8090169943749475 0.5430427641049989
      vertex -0.5720614028176843 0.5877852522924731 0.5720614028176844
      vertex -0.3095974002490934 0.5877852522924731 0.7474342425568128
    endloop
  endfacet
  facet normal -0.5936131960090991 0.7002145072825531 0.3966396567602819
    outer loop
      vertex -0.4156269377774534 0.8090169943749475 0.41562693777745346
      vertex -0.5430427641049989 0.8090169943749475 0.22493567784086393
      vertex -0.7474342425568128 0.5877852522924731 0.3095974002490935
    endloop
  endfacet
  facet normal -0.593613196009099 0.7002145072825531 0.3966396567602819
    outer loop
      vertex -0.4156269377774534 0.8090169943749475 0.41562693777745346
      vertex -0.7474342425568128 0.5877852522924731 0.3095974002490935
      vertex -0.5720614028176843 0.5877852522924731 0.5720614028176844
    endloop
  endfacet
  facet normal -0.7002145072825532 0.7002145072825532 0.13928132531715337
    outer loop
      vertex -0.5430427641049989 0.8090169943749475 0.22493567784086393
      vertex -0.5877852522924731 0.8090169943749475 7.198293278059966e-17
      vertex -0.8090169943749475 0.5877852522924731 9.907600726170916e-17
    endloop
  endfacet
  facet normal -0.7002145072825531 0.7002145072825531 0.13928132531715337
    outer loop
      vertex -0.5430427641049989 0.8090169943749475 0.22493567784086393
      vertex -0.8090169943749475 0.5877852522924731 9.907600726170916e-17
      vertex -0.7474342425568128 0.5877852522924731 0.3095974002490935
    endloop
  endfacet
  facet normal -0.7002145072825532 0.7002145072825531 -0.13928132531715334
    outer loop
      vertex -0.5877852522924731 0.8090169943749475 7.198293278059966e-17
      vertex -0.5430427641049989 0.8090169943749475 -0.22493567784086382
      vertex -0.7474342425568128 0.5877852522924731 -0.3095974002490933
    endloop
  endfacet
  facet normal -0.7002145072825532 0.7002145072825532 -0.13928132531715334
    outer loop
      vertex -0.5877852522924731 0.8090169943749475 7.198293278059966e-17
      vertex -0.7474342425568128 0.5877852522924731 -0.3095974002490933
      vertex -0.8090169943749475 0.5877852522924731 9.907600726170916e-17
    endloop
  endfacet
  facet normal -0.5936131960090993 0.7002145072825531 -0.39663965676028157
    outer loop
      vertex -0.5430427641049989 0.8090169943749475 -0.22493567784086382
      vertex -0.4156269377774535 0.8090169943749475 -0.4156269377774534
      vertex -0.5720614028176845 0.5877852522924731 -0.5720614028176843
    endloop
  endfacet
  facet normal -0.5936131960090993 0.7002145072825531 -0.3966396567602815
    outer loop
      vertex -0.5430427641049989 0.8090169943749475 -0.22493567784086382
      vertex -0.5720614028176845 0.5877852522924731 -0.5720614028176843
      vertex -0.7474342425568128 0.5877852522924731 -0.3095974002490933
    endloop
  endfacet
  facet normal -0.3966396567602817 0.7002145072825532 -0.5936131960090991
    outer loop
      vertex -0.4156269377774535 0.8090169943749475 -0.4156269377774534
      vertex -0.2249356778408642 0.8090169943749475 -0.5430427641049986
      vertex -0.3095974002490939 0.5877852522924731 -0.7474342425568126
    endloop
  endfacet
  facet normal -0.39663965676028184 0.7002145072825532 -0.5936131960090991
    outer loop
      vertex -0.4156269377774535 0.8090169943749475 -0.4156269377774534
      vertex -0.3095974002490939 0.5877852522924731 -0.7474342425568126
      vertex -0.5720614028176845 0.5877852522924731 -0.5720614028176843
    endloop
  endfacet
  facet normal -0.13928132531715387 0.7002145072825531 -0.700214507282553
    outer loop
      vertex -0.2249356778408642 0.8090169943749475 -0.5430427641049986
      vertex -1.079743991708995e-16 0.8090169943749475 -0.5877852522924731
      vertex -1.4861401089256373e-16 0.5877852522924731 -0.8090169943749475
    endloop
  endfacet
  facet normal -0.1392813253171537 0.700214507282553 -0.700214507282553
    outer loop
      vertex -0.2249356778408642 0.8090169943749475 -0.5430427641049986
      vertex -1.4861401089256373e-16 0.5877852522924731 -0.8090169943749475
      vertex -0.3095974002490939 0.5877852522924731 -0.7474342425568126
    endloop
  endfacet
  facet normal 0.1392813253171535 0.7002145072825532 -0.7002145072825531
    outer loop
      vertex -1.079743991708995e-16 0.8090169943749475 -0.5877852522924731
      vertex 0.22493567784086402 0.8090169943749475 -0.5430427641049987
      vertex 0.3095974002490936 0.5877852522924731 -0.7474342425568127
    endloop
  endfacet
  facet normal 0.13928132531715345 0.7002145072825531 -0.7002145072825532
    outer loop
      vertex -1.079743991708995e-16 0.8090169943749475 -0.5877852522924731
      vertex 0.3095974002490936 0.5877852522924731 -0.7474342425568127
      vertex -1.4861401089256373e-16 0.5877852522924731 -0.8090169943749475
    endloop
  endfacet
  facet normal 0.3966396567602817 0.7002145072825531 -0.5936131960090992
    outer loop
      vertex 0.22493567784086402 0.8090169943749475 -0.5430427641049987
      vertex 0.41562693777745335 0.8090169943749475 -0.4156269377774535
      vertex 0.5720614028176841 0.5877852522924731 -0.5720614028176845
    endloop
  endfacet
  facet normal 0.39663965676028173 0.7002145072825533 -0.5936131960090992
    outer loop
      vertex 0.22493567784086402 0.8090169943749475 -0.5430427641049987
      vertex 0.5720614028176841 0.5877852522924731 -0.5720614028176845
      vertex 0.3095974002490936 0.5877852522924731 -0.7474342425568127
    endloop
  endfacet
  facet normal 0.593613196009099 0.7002145072825533 -0.39663965676028184
    outer loop
      vertex 0.41562693777745335 0.8090169943749475 -0.4156269377774535
      vertex 0.5430427641049986 0.8090169943749475 -0.22493567784086424
      vertex 0.7474342425568126 0.5877852522924731 -0.30959740024909393
    endloop
  endfacet
  facet normal 0.5936131960090989 0.7002145072825531 -0.3966396567602821
    outer loop
      vertex 0.41562693777745335 0.8090169943749475 -0.4156269377774535
      vertex 0.7474342425568126 0.5877852522924731 -0.30959740024909393
      vertex 0.5720614028176841 0.5877852522924731 -0.5720614028176845
    endloop
  endfacet
  facet normal 0.7002145072825531 0.7002145072825532 -0.1392813253171539
    outer loop
      vertex 0.5430427641049986 0.8090169943749475 -0.22493567784086424
      vertex 0.5877852522924731 0.8090169943749475 -1.4396586556119933e-16
      vertex 0.8090169943749475 0.5877852522924731 -1.9815201452341832e-16
    endloop
  endfacet
  facet normal 0.7002145072825531 0.7002145072825531 -0.13928132531715373
    outer loop
      vertex 0.5430427641049986 0.8090169943749475 -0.22493567784086424
      vertex 0.8090169943749475 0.5877852522924731 -1.9815201452341832e-16
      vertex 0.7474342425568126 0.5877852522924731 -0.30959740024909393
    endloop
  endfacet
  facet normal 0.8773339796624319 0.44702399034423645 0.17451257887727095
    outer loop
      vertex 0.8090169943749475 0.5877852522924731 0.0
      vertex 0.7474342425568128 0.5877852522924731 0.30959740024909344
      vertex 0.8786616496665794 0.30901699437494745 0.3639535720290143
    endloop
  endfacet
  facet normal 0.8773339796624318 0.44702399034423645 0.17451257887727098
    outer loop
      vertex 0.8090169943749475 0.5877852522924731 0.0
      vertex 0.8786616496665794 0.30901699437494745 0.3639535720290143
      vertex 0.9510565162951535 0.30901699437494745 0.0
    endloop
  endfacet
  facet normal 0.7437678343111566 0.4470239903442365 0.4969697784582155
    outer loop
      vertex 0.7474342425568128 0.5877852522924731 0.30959740024909344
      vertex 0.5720614028176844 0.5877852522924731 0.5720614028176843
      vertex 0.6724985119639574 0.30901699437494745 0.6724985119639573
    endloop
  endfacet
  facet normal 0.7437678343111568 0.44702399034423645 0.49696977845821544
    outer loop
      vertex 0.7474342425568128 0.5877852522924731 0.30959740024909344
      vertex 0.6724985119639574 0.30901699437494745 0.6724985119639573
      vertex 0.8786616496665794 0.30901699437494745 0.3639535720290143
    endloop
  endfacet
  facet normal 0.49696977845821577 0.4470239903442364 0.7437678343111566
    outer loop
      vertex 0.5720614028176844 0.5877852522924731 0.5720614028176843
      vertex 0.3095974002490935 0.5877852522924731 0.7474342425568128
      vertex 0.36395357202901435 0.30901699437494745 0.8786616496665794
    endloop
  endfacet
  facet normal 0.4969697784582155 0.44702399034423657 0.7437678343111567
    outer loop
      vertex 0.5720614028176844 0.5877852522924731 0.5720614028176843
      vertex 0.36395357202901435 0.30901699437494745 0.8786616496665794
      vertex 0.6724985119639574 0.30901699437494745 0.6724985119639573
    endloop
  endfacet
  facet normal 0.17451257887727095 0.44702399034423645 0.8773339796624319
    outer loop
      vertex 0.3095974002490935 0.5877852522924731 0.7474342425568128
      vertex 4.953800363085458e-17 0.5877852522924731 0.8090169943749475
      vertex 5.823541592445462e-17 0.30901699437494745 0.9510565162951535
    endloop
  endfacet
  facet normal 0.17451257887727095 0.44702399034423645 0.8773339796624318
    outer loop
      vertex 0.3095974002490935 0.5877852522924731 0.7474342425568128
      vertex 5.823541592445462e-17 0.30901699437494745 0.9510565162951535
      vertex 0.36395357202901435 0.30901699437494745 0.8786616496665794
    endloop
  endfacet
  facet normal -0.17451257887727095 0.44702399034423645 0.8773339796624319
    outer loop
      vertex 4.953800363085458e-17 0.5877852522924731 0.8090169943749475
      vertex -0.3095974002490934 0.5877852522924731 0.7474342425568128
      vertex -0.36395357202901424 0.30901699437494745 0.8786616496665794
    endloop
  endfacet
  facet normal -0.17451257887727098 0.44702399034423645 0.8773339796624318
    outer loop
      vertex 4.953800363085458e-17 0.5877852522924731 0.8090169943749475
      vertex -0.36395357202901424 0.30901699437494745 0.8786616496665794
      vertex 5.823541592445462e-17 0.30901699437494745 0.9510565162951535
    endloop
  endfacet
  facet normal -0.4969697784582154 0.4470239903442365 0.7437678343111566
    outer loop
      vertex -0.3095974002490934 0.5877852522924731 0.7474342425568128
      vertex -0.5720614028176843 0.5877852522924731 0.5720614028176844
      vertex -0.6724985119639573 0.30901699437494745 0.6724985119639574
    endloop
  endfacet
  facet normal -0.4969697784582154 0.44702399034423645 0.7437678343111568
    outer loop
      vertex -0.3095974002490934 0.5877852522924731 0.7474342425568128
      vertex -0.6724985119639573 0.30901699437494745 0.6724985119639574
      vertex -0.36395357202901424 0.30901699437494745 0.8786616496665794
    endloop
  endfacet
  facet normal -0.7437678343111566 0.44702399034423645 0.49696977845821566
    outer loop
      vertex -0.5720614028176843 0.5877852522924731 0.5720614028176844
      vertex -0.7474342425568128 0.5877852522924731 0.3095974002490935
      vertex -0.8786616496665794 0.30901699437494745 0.3639535720290144
    endloop
  endfacet
  facet normal -0.7437678343111566 0.44702399034423657 0.49696977845821555
    outer loop
      vertex -0.5720614028176843 0.5877852522924731 0.5720614028176844
      vertex -0.8786616496665794 0.30901699437494745 0.3639535720290144
      vertex -0.6724985119639573 0.30901699437494745 0.6724985119639574
    endloop
  endfacet
  facet normal -0.8773339796624319 0.4470239903442365 0.17451257887727098
    outer loop
      vertex -0.7474342425568128 0.5877852522924731 0.3095974002490935
      vertex -0.8090169943749475 0.5877852522924731 9.907600726170916e-17
      vertex -0.9510565162951535 0.30901699437494745 1.1647083184890923e-16
    endloop
  endfacet
  facet normal -0.8773339796624318 0.4470239903442365 0.17451257887727098
    outer loop
      vertex -0.7474342425568128 0.5877852522924731 0.3095974002490935
      vertex -0.9510565162951535 0.30901699437494745 1.1647083184890923e-16
      vertex -0.8786616496665794 0.30901699437494745 0.3639535720290144
    endloop
  endfacet
  facet normal -0.8773339796624318 0.4470239903442367 -0.17451257887727092
    outer loop
      vertex -0.8090169943749475 0.5877852522924731 9.907600726170916e-17
      vertex -0.7474342425568128 0.5877852522924731 -0.3095974002490933
      vertex -0.8786616496665796 0.30901699437494745 -0.3639535720290142
    endloop
  endfacet
  facet normal -0.8773339796624319 0.4470239903442365 -0.17451257887727073
    outer loop
      vertex -0.8090169943749475 0.5877852522924731 9.907600726170916e-17
      vertex -0.8786616496665796 0.30901699437494745 -0.3639535720290142
      vertex -0.9510565162951535 0.30901699437494745 1.1647083184890923e-16
    endloop
  endfacet
  facet normal -0.7437678343111569 0.4470239903442365 -0.4969697784582152
    outer loop
      vertex -0.7474342425568128 0.5877852522924731 -0.3095974002490933
      vertex -0.5720614028176845 0.5877852522924731 -0.5720614028176843
      vertex -0.6724985119639575 0.30901699437494745 -0.6724985119639573
    endloop
  endfacet
  facet normal -0.7437678343111567 0.4470239903442366 -0.4969697784582152
    outer loop
      vertex -0.7474342425568128 0.5877852522924731 -0.3095974002490933
      vertex -0.6724985119639575 0.30901699437494745 -0.6724985119639573
      vertex -0.8786616496665796 0.30901699437494745 -0.3639535720290142
    endloop
  endfacet
  facet normal -0.4969697784582156 0.4470239903442366 -0.7437678343111565
    outer loop
      vertex -0.5720614028176845 0.5877852522924731 -0.5720614028176843
      vertex -0.3095974002490939 0.5877852522924731 -0.7474342425568126
      vertex -0.36395357202901485 0.30901699437494745 -0.8786616496665792
    endloop
  endfacet
  facet normal -0.49696977845821566 0.44702399034423657 -0.7437678343111566
    outer loop
      vertex -0.5720614028176845 0.5877852522924731 -0.5720614028176843
      vertex -0.36395357202901485 0.30901699437494745 -0.8786616496665792
      vertex -0.6724985119639575 0.30901699437494745 -0.6724985119639573
    endloop
  endfacet
  facet normal -0.1745125788772714 0.44702399034423645 -0.8773339796624318
    outer loop
      vertex -0.3095974002490939 0.5877852522924731 -0.7474342425568126
      vertex -1.4861401089256373e-16 0.5877852522924731 -0.8090169943749475
      vertex -1.7470624777336384e-16 0.30901699437494745 -0.9510565162951535
    endloop
  endfacet
  facet normal -0.1745125788772713 0.44702399034423657 -0.8773339796624317
    outer loop
      vertex -0.3095974002490939 0.5877852522924731 -0.7474342425568126
      vertex -1.7470624777336384e-16 0.30901699437494745 -0.9510565162951535
      vertex -0.36395357202901485 0.30901699437494745 -0.8786616496665792
    endloop
  endfacet
  facet normal 0.17451257887727106 0.44702399034423645 -0.8773339796624318
    outer loop
      vertex -1.4861401089256373e-16 0.5877852522924731 -0.8090169943749475
      vertex 0.3095974002490936 0.5877852522924731 -0.7474342425568127
      vertex 0.3639535720290145 0.30901699437494745 -0.8786616496665793
    endloop
  endfacet
  facet normal 0.17451257887727104 0.4470239903442364 -0.8773339796624319
    outer loop
      vertex -1.4861401089256373e-16 0.5877852522924731 -0.8090169943749475
      vertex 0.3639535720290145 0.30901699437494745 -0.8786616496665793
      vertex -1.7470624777336384e-16 0.30901699437494745 -0.9510565162951535
    endloop
  endfacet
  facet normal 0.4969697784582155 0.4470239903442366 -0.7437678343111567
    outer loop
      vertex 0.3095974002490936 0.5877852522924731 -0.7474342425568127
      vertex 0.5720614028176841 0.5877852522924731 -0.5720614028176845
      vertex 0.6724985119639572 0.30901699437494745 -0.6724985119639575
    endloop
  endfacet
  facet normal 0.49696977845821544 0.44702399034423657 -0.7437678343111568
    outer loop
      vertex 0.3095974002490936 0.5877852522924731 -0.7474342425568127
      vertex 0.6724985119639572 0.30901699437494745 -0.6724985119639575
      vertex 0.3639535720290145 0.30901699437494745 -0.8786616496665793
    endloop
  endfacet
  facet normal 0.7437678343111563 0.44702399034423645 -0.4969697784582159
    outer loop
      vertex 0.5720614028176841 0.5877852522924731 -0.5720614028176845
      vertex 0.7474342425568126 0.5877852522924731 -0.30959740024909393
      vertex 0.8786616496665792 0.30901699437494745 -0.36395357202901485
    endloop
  endfacet
  facet normal 0.7437678343111565 0.4470239903442366 -0.4969697784582158
    outer loop
      vertex 0.5720614028176841 0.5877852522924731 -0.5720614028176845
      vertex 0.8786616496665792 0.30901699437494745 -0.36395357202901485
      vertex 0.6724985119639572 0.30901699437494745 -0.6724985119639575
    endloop
  endfacet
  facet normal 0.8773339796624318 0.44702399034423645 -0.1745125788772714
    outer loop
      vertex 0.7474342425568126 0.5877852522924731 -0.30959740024909393
      vertex 0.8090169943749475 0.5877852522924731 -1.9815201452341832e-16
      vertex 0.9510565162951535 0.30901699437494745 -2.3294166369781847e-16
    endloop
  endfacet
  facet normal 0.8773339796624317 0.4470239903442365 -0.1745125788772713
    outer loop
      vertex 0.7474342425568126 0.5877852522924731 -0.30959740024909393
      vertex 0.9510565162951535 0.30901699437494745 -2.3294166369781847e-16
      vertex 0.8786616496665792 0.30901699437494745 -0.36395357202901485
    endloop
  endfacet
  facet normal 0.9691616299000554 0.15350012233573562 0.19277823417694787
    outer loop
      vertex 0.9510565162951535 0.30901699437494745 0.0
      vertex 0.8786616496665794 0.30901699437494745 0.3639535720290143
      vertex 0.9238795325112867 6.123233995736766e-17 0.3826834323650898
    endloop
  endfacet
  facet normal 0.9691616299000554 0.1535001223357358 0.192778234176948
    outer loop
      vertex 0.9510565162951535 0.30901699437494745 0.0
      vertex 0.9238795325112867 6.123233995736766e-17 0.3826834323650898
      vertex 1.0 6.123233995736766e-17 0.0
    endloop
  endfacet
  facet normal 0.8216155572198244 0.15350012233573565 0.5489859639164479
    outer loop
      vertex 0.8786616496665794 0.30901699437494745 0.3639535720290143
      vertex 0.6724985119639574 0.30901699437494745 0.6724985119639573
      vertex 0.7071067811865476 6.123233995736766e-17 0.7071067811865475
    endloop
  endfacet
  facet normal 0.8216155572198245 0.15350012233573568 0.548985963916448
    outer loop
      vertex 0.8786616496665794 0.30901699437494745 0.3639535720290143
      vertex 0.7071067811865476 6.123233995736766e-17 0.7071067811865475
      vertex 0.9238795325112867 6.123233995736766e-17 0.3826834323650898
    endloop
  endfacet
  facet normal 0.5489859639164482 0.15350012233573565 0.8216155572198243
    outer loop
      vertex 0.6724985119639574 0.30901699437494745 0.6724985119639573
      vertex 0.36395357202901435 0.30901699437494745 0.8786616496665794
      vertex 0.38268343236508984 6.123233995736766e-17 0.9238795325112867
    endloop
  endfacet
  facet normal 0.5489859639164482 0.15350012233573565 0.8216155572198243
    outer loop
      vertex 0.6724985119639574 0.30901699437494745 0.6724985119639573
      vertex 0.38268343236508984 6.123233995736766e-17 0.9238795325112867
      vertex 0.7071067811865476 6.123233995736766e-17 0.7071067811865475
    endloop
  endfacet
  facet normal 0.19277823417694787 0.15350012233573576 0.9691616299000554
    outer loop
      vertex 0.36395357202901435 0.30901699437494745 0.8786616496665794
      vertex 5.823541592445462e-17 0.30901699437494745 0.9510565162951535
      vertex 6.123233995736766e-17 6.123233995736766e-17 1.0
    endloop
  endfacet
  facet normal 0.192778234176948 0.15350012233573565 0.9691616299000554
    outer loop
      vertex 0.36395357202901435 0.30901699437494745 0.8786616496665794
      vertex 6.123233995736766e-17 6.123233995736766e-17 1.0
      vertex 0.38268343236508984 6.123233995736766e-17 0.9238795325112867
    endloop
  endfacet
  facet normal -0.1927782341769479 0.15350012233573562 0.9691616299000555
    outer loop
      vertex 5.823541592445462e-17 0.30901699437494745 0.9510565162951535
      vertex -0.36395357202901424 0.30901699437494745 0.8786616496665794
      vertex -0.3826834323650897 6.123233995736766e-17 0.9238795325112867
    endloop
  endfacet
  facet normal -0.192778234176948 0.1535001223357358 0.9691616299000554
    outer loop
      vertex 5.823541592445462e-17 0.30901699437494745 0.9510565162951535
      vertex -0.3826834323650897 6.123233995736766e-17 0.9238795325112867
      vertex 6.123233995736766e-17 6.123233995736766e-17 1.0
    endloop
  endfacet
  facet normal -0.5489859639164479 0.15350012233573568 0.8216155572198245
    outer loop
      vertex -0.36395357202901424 0.30901699437494745 0.8786616496665794
      vertex -0.6724985119639573 0.30901699437494745 0.6724985119639574
      vertex -0.7071067811865475 6.123233995736766e-17 0.7071067811865476
    endloop
  endfacet
  facet normal -0.5489859639164479 0.15350012233573568 0.8216155572198245
    outer loop
      vertex -0.36395357202901424 0.30901699437494745 0.8786616496665794
      vertex -0.7071067811865475 6.123233995736766e-17 0.7071067811865476
      vertex -0.3826834323650897 6.123233995736766e-17 0.9238795325112867
    endloop
  endfacet
  facet normal -0.8216155572198243 0.15350012233573568 0.5489859639164483
    outer loop
      vertex -0.6724985119639573 0.30901699437494745 0.6724985119639574
      vertex -0.8786616496665794 0.30901699437494745 0.3639535720290144
      vertex -0.9238795325112867 6.123233995736766e-17 0.3826834323650899
    endloop
  endfacet
  facet normal -0.8216155572198243 0.15350012233573565 0.5489859639164483
    outer loop
      vertex -0.6724985119639573 0.30901699437494745 0.6724985119639574
      vertex -0.9238795325112867 6.123233995736766e-17 0.3826834323650899
      vertex -0.7071067811865475 6.123233995736766e-17 0.7071067811865476
    endloop
  endfacet
  facet normal -0.9691616299000554 0.15350012233573576 0.19277823417694787
    outer loop
      vertex -0.8786616496665794 0.30901699437494745 0.3639535720290144
      vertex -0.9510565162951535 0.30901699437494745 1.1647083184890923e-16
      vertex -1.0 6.123233995736766e-17 1.2246467991473532e-16
    endloop
  endfacet
  facet normal -0.9691616299000554 0.15350012233573565 0.192778234176948
    outer loop
      vertex -0.8786616496665794 0.30901699437494745 0.3639535720290144
      vertex -1.0 6.123233995736766e-17 1.2246467991473532e-16
      vertex -0.9238795325112867 6.123233995736766e-17 0.3826834323650899
    endloop
  endfacet
  facet normal -0.9691616299000555 0.15350012233573562 -0.1927782341769476
    outer loop
      vertex -0.9510565162951535 0.30901699437494745 1.1647083184890923e-16
      vertex -0.8786616496665796 0.30901699437494745 -0.3639535720290142
      vertex -0.9238795325112868 6.123233995736766e-17 -0.38268343236508967
    endloop
  endfacet
  facet normal -0.9691616299000554 0.1535001223357358 -0.19277823417694773
    outer loop
      vertex -0.9510565162951535 0.30901699437494745 1.1647083184890923e-16
      vertex -0.9238795325112868 6.123233995736766e-17 -0.38268343236508967
      vertex -1.0 6.123233995736766e-17 1.2246467991473532e-16
    endloop
  endfacet
  facet normal -0.8216155572198245 0.15350012233573562 -0.5489859639164478
    outer loop
      vertex -0.8786616496665796 0.30901699437494745 -0.3639535720290142
      vertex -0.6724985119639575 0.30901699437494745 -0.6724985119639573
      vertex -0.7071067811865477 6.123233995736766e-17 -0.7071067811865475
    endloop
  endfacet
  facet normal -0.8216155572198246 0.1535001223357357 -0.5489859639164479
    outer loop
      vertex -0.8786616496665796 0.30901699437494745 -0.3639535720290142
      vertex -0.7071067811865477 6.123233995736766e-17 -0.7071067811865475
      vertex -0.9238795325112868 6.123233995736766e-17 -0.38268343236508967
    endloop
  endfacet
  facet normal -0.5489859639164482 0.15350012233573565 -0.8216155572198243
    outer loop
      vertex -0.6724985119639575 0.30901699437494745 -0.6724985119639573
      vertex -0.36395357202901485 0.30901699437494745 -0.8786616496665792
      vertex -0.38268343236509034 6.123233995736766e-17 -0.9238795325112865
    endloop
  endfacet
  facet normal -0.5489859639164483 0.15350012233573568 -0.8216155572198243
    outer loop
      vertex -0.6724985119639575 0.30901699437494745 -0.6724985119639573
      vertex -0.38268343236509034 6.123233995736766e-17 -0.9238795325112865
      vertex -0.7071067811865477 6.123233995736766e-17 -0.7071067811865475
    endloop
  endfacet
  facet normal -0.19277823417694825 0.15350012233573582 -0.9691616299000553
    outer loop
      vertex -0.36395357202901485 0.30901699437494745 -0.8786616496665792
      vertex -1.7470624777336384e-16 0.30901699437494745 -0.9510565162951535
      vertex -1.8369701987210297e-16 6.123233995736766e-17 -1.0
    endloop
  endfacet
  facet normal -0.19277823417694837 0.15350012233573568 -0.9691616299000553
    outer loop
      vertex -0.36395357202901485 0.30901699437494745 -0.8786616496665792
      vertex -1.8369701987210297e-16 6.123233995736766e-17 -1.0
      vertex -0.38268343236509034 6.123233995736766e-17 -0.9238795325112865
    endloop
  endfacet
  facet normal 0.192778234176948 0.15350012233573568 -0.9691616299000554
    outer loop
      vertex -1.7470624777336384e-16 0.30901699437494745 -0.9510565162951535
      vertex 0.3639535720290145 0.30901699437494745 -0.8786616496665793
      vertex 0.38268343236509 6.123233995736766e-17 -0.9238795325112866
    endloop
  endfacet
  facet normal 0.19277823417694812 0.1535001223357358 -0.9691616299000554
    outer loop
      vertex -1.7470624777336384e-16 0.30901699437494745 -0.9510565162951535
      vertex 0.38268343236509 6.123233995736766e-17 -0.9238795325112866
      vertex -1.8369701987210297e-16 6.123233995736766e-17 -1.0
    endloop
  endfacet
  facet normal 0.5489859639164479 0.15350012233573557 -0.8216155572198244
    outer loop
      vertex 0.3639535720290145 0.30901699437494745 -0.8786616496665793
      vertex 0.6724985119639572 0.30901699437494745 -0.6724985119639575
      vertex 0.7071067811865474 6.123233995736766e-17 -0.7071067811865477
    endloop
  endfacet
  facet normal 0.5489859639164482 0.15350012233573568 -0.8216155572198244
    outer loop
      vertex 0.3639535720290145 0.30901699437494745 -0.8786616496665793
      vertex 0.7071067811865474 6.123233995736766e-17 -0.7071067811865477
      vertex 0.38268343236509 6.123233995736766e-17 -0.9238795325112866
    endloop
  endfacet
  facet normal 0.8216155572198243 0.1535001223357357 -0.5489859639164485
    outer loop
      vertex 0.6724985119639572 0.30901699437494745 -0.6724985119639575
      vertex 0.8786616496665792 0.30901699437494745 -0.36395357202901485
      vertex 0.9238795325112865 6.123233995736766e-17 -0.3826834323650904
    endloop
  endfacet
  facet normal 0.821615557219824 0.15350012233573568 -0.5489859639164486
    outer loop
      vertex 0.6724985119639572 0.30901699437494745 -0.6724985119639575
      vertex 0.9238795325112865 6.123233995736766e-17 -0.3826834323650904
      vertex 0.7071067811865474 6.123233995736766e-17 -0.7071067811865477
    endloop
  endfacet
  facet normal 0.9691616299000554 0.15350012233573582 -0.1927782341769483
    outer loop
      vertex 0.8786616496665792 0.30901699437494745 -0.36395357202901485
      vertex 0.9510565162951535 0.30901699437494745 -2.3294166369781847e-16
      vertex 1.0 6.123233995736766e-17 -2.4492935982947064e-16
    endloop
  endfacet
  facet normal 0.9691616299000553 0.15350012233573568 -0.19277823417694837
    outer loop
      vertex 0.8786616496665792 0.30901699437494745 -0.36395357202901485
      vertex 1.0 6.123233995736766e-17 -2.4492935982947064e-16
      vertex 0.9238795325112865 6.123233995736766e-17 -0.3826834323650904
    endloop
  endfacet
  facet normal 0.9691616299000555 -0.1535001223357353 0.19277823417694803
    outer loop
      vertex 1.0 6.123233995736766e-17 0.0
      vertex 0.9238795325112867 6.123233995736766e-17 0.3826834323650898
      vertex 0.8786616496665796 -0.30901699437494734 0.36395357202901435
    endloop
  endfacet
  facet normal 0.9691616299000555 -0.15350012233573546 0.1927782341769479
    outer loop
      vertex 1.0 6.123233995736766e-17 0.0
      vertex 0.8786616496665796 -0.30901699437494734 0.36395357202901435
      vertex 0.9510565162951536 -0.30901699437494734 0.0
    endloop
  endfacet
  facet normal 0.8216155572198245 -0.15350012233573573 0.548985963916448
    outer loop
      vertex 0.9238795325112867 6.123233995736766e-17 0.3826834323650898
      vertex 0.7071067811865476 6.123233995736766e-17 0.7071067811865475
      vertex 0.6724985119639574 -0.30901699437494734 0.6724985119639573
    endloop
  endfacet
  facet normal 0.8216155572198243 -0.1535001223357353 0.5489859639164484
    outer loop
      vertex 0.9238795325112867 6.123233995736766e-17 0.3826834323650898
      vertex 0.6724985119639574 -0.30901699437494734 0.6724985119639573
      vertex 0.8786616496665796 -0.30901699437494734 0.36395357202901435
    endloop
  endfacet
  facet normal 0.5489859639164483 -0.15350012233573535 0.8216155572198244
    outer loop
      vertex 0.7071067811865476 6.123233995736766e-17 0.7071067811865475
      vertex 0.38268343236508984 6.123233995736766e-17 0.9238795325112867
      vertex 0.3639535720290144 -0.30901699437494734 0.8786616496665796
    endloop
  endfacet
  facet normal 0.5489859639164484 -0.15350012233573565 0.8216155572198242
    outer loop
      vertex 0.7071067811865476 6.123233995736766e-17 0.7071067811865475
      vertex 0.3639535720290144 -0.30901699437494734 0.8786616496665796
      vertex 0.6724985119639574 -0.30901699437494734 0.6724985119639573
    endloop
  endfacet
  facet normal 0.192778234176948 -0.15350012233573546 0.9691616299000554
    outer loop
      vertex 0.38268343236508984 6.123233995736766e-17 0.9238795325112867
      vertex 6.123233995736766e-17 6.123233995736766e-17 1.0
      vertex 5.823541592445463e-17 -0.30901699437494734 0.9510565162951536
    endloop
  endfacet
  facet normal 0.19277823417694787 -0.1535001223357353 0.9691616299000555
    outer loop
      vertex 0.38268343236508984 6.123233995736766e-17 0.9238795325112867
      vertex 5.823541592445463e-17 -0.30901699437494734 0.9510565162951536
      vertex 0.3639535720290144 -0.30901699437494734 0.8786616496665796
    endloop
  endfacet
  facet normal -0.19277823417694803 -0.1535001223357353 0.9691616299000555
    outer loop
      vertex 6.123233995736766e-17 6.123233995736766e-17 1.0
      vertex -0.3826834323650897 6.123233995736766e-17 0.9238795325112867
      vertex -0.3639535720290143 -0.30901699437494734 0.8786616496665796
    endloop
  endfacet
  facet normal -0.1927782341769479 -0.15350012233573546 0.9691616299000555
    outer loop
      vertex 6.123233995736766e-17 6.123233995736766e-17 1.0
      vertex -0.3639535720290143 -0.30901699437494734 0.8786616496665796
      vertex 5.823541592445463e-17 -0.30901699437494734 0.9510565162951536
    endloop
  endfacet
  facet normal -0.5489859639164479 -0.1535001223357357 0.8216155572198245
    outer loop
      vertex -0.3826834323650897 6.123233995736766e-17 0.9238795325112867
      vertex -0.7071067811865475 6.123233995736766e-17 0.7071067811865476
      vertex -0.6724985119639573 -0.30901699437494734 0.6724985119639574
    endloop
  endfacet
  facet normal -0.5489859639164483 -0.15350012233573526 0.8216155572198243
    outer loop
      vertex -0.3826834323650897 6.123233995736766e-17 0.9238795325112867
      vertex -0.6724985119639573 -0.30901699437494734 0.6724985119639574
      vertex -0.3639535720290143 -0.30901699437494734 0.8786616496665796
    endloop
  endfacet
  facet normal -0.8216155572198244 -0.15350012233573532 0.5489859639164483
    outer loop
      vertex -0.7071067811865475 6.123233995736766e-17 0.7071067811865476
      vertex -0.9238795325112867 6.123233995736766e-17 0.3826834323650899
      vertex -0.8786616496665796 -0.30901699437494734 0.36395357202901446
    endloop
  endfacet
  facet normal -0.821615557219824 -0.15350012233573568 0.5489859639164485
    outer loop
      vertex -0.7071067811865475 6.123233995736766e-17 0.7071067811865476
      vertex -0.8786616496665796 -0.30901699437494734 0.36395357202901446
      vertex -0.6724985119639573 -0.30901699437494734 0.6724985119639574
    endloop
  endfacet
  facet normal -0.9691616299000554 -0.15350012233573546 0.192778234176948
    outer loop
      vertex -0.9238795325112867 6.123233995736766e-17 0.3826834323650899
      vertex -1.0 6.123233995736766e-17 1.2246467991473532e-16
      vertex -0.9510565162951536 -0.30901699437494734 1.1647083184890926e-16
    endloop
  endfacet
  facet normal -0.9691616299000555 -0.1535001223357353 0.19277823417694787
    outer loop
      vertex -0.9238795325112867 6.123233995736766e-17 0.3826834323650899
      vertex -0.9510565162951536 -0.30901699437494734 1.1647083184890926e-16
      vertex -0.8786616496665796 -0.30901699437494734 0.36395357202901446
    endloop
  endfacet
  facet normal -0.9691616299000555 -0.15350012233573562 -0.19277823417694775
    outer loop
      vertex -1.0 6.123233995736766e-17 1.2246467991473532e-16
      vertex -0.9238795325112868 6.123233995736766e-17 -0.38268343236508967
      vertex -0.8786616496665796 -0.30901699437494734 -0.36395357202901424
    endloop
  endfacet
  facet normal -0.9691616299000555 -0.15350012233573546 -0.1927782341769479
    outer loop
      vertex -1.0 6.123233995736766e-17 1.2246467991473532e-16
      vertex -0.8786616496665796 -0.30901699437494734 -0.36395357202901424
      vertex -0.9510565162951536 -0.30901699437494734 1.1647083184890926e-16
    endloop
  endfacet
  facet normal -0.8216155572198246 -0.1535001223357357 -0.5489859639164479
    outer loop
      vertex -0.9238795325112868 6.123233995736766e-17 -0.38268343236508967
      vertex -0.7071067811865477 6.123233995736766e-17 -0.7071067811865475
      vertex -0.6724985119639575 -0.30901699437494734 -0.6724985119639573
    endloop
  endfacet
  facet normal -0.8216155572198245 -0.15350012233573557 -0.5489859639164479
    outer loop
      vertex -0.9238795325112868 6.123233995736766e-17 -0.38268343236508967
      vertex -0.6724985119639575 -0.30901699437494734 -0.6724985119639573
      vertex -0.8786616496665796 -0.30901699437494734 -0.36395357202901424
    endloop
  endfacet
  facet normal -0.5489859639164483 -0.15350012233573543 -0.8216155572198243
    outer loop
      vertex -0.7071067811865477 6.123233995736766e-17 -0.7071067811865475
      vertex -0.38268343236509034 6.123233995736766e-17 -0.9238795325112865
      vertex -0.36395357202901485 -0.30901699437494734 -0.8786616496665793
    endloop
  endfacet
  facet normal -0.5489859639164484 -0.15350012233573565 -0.8216155572198242
    outer loop
      vertex -0.7071067811865477 6.123233995736766e-17 -0.7071067811865475
      vertex -0.36395357202901485 -0.30901699437494734 -0.8786616496665793
      vertex -0.6724985119639575 -0.30901699437494734 -0.6724985119639573
    endloop
  endfacet
  facet normal -0.19277823417694837 -0.15350012233573546 -0.9691616299000554
    outer loop
      vertex -0.38268343236509034 6.123233995736766e-17 -0.9238795325112865
      vertex -1.8369701987210297e-16 6.123233995736766e-17 -1.0
      vertex -1.7470624777336386e-16 -0.30901699437494734 -0.9510565162951536
    endloop
  endfacet
  facet normal -0.19277823417694828 -0.15350012233573535 -0.9691616299000554
    outer loop
      vertex -0.38268343236509034 6.123233995736766e-17 -0.9238795325112865
      vertex -1.7470624777336386e-16 -0.30901699437494734 -0.9510565162951536
      vertex -0.36395357202901485 -0.30901699437494734 -0.8786616496665793
    endloop
  endfacet
  facet normal 0.19277823417694814 -0.1535001223357353 -0.9691616299000555
    outer loop
      vertex -1.8369701987210297e-16 6.123233995736766e-17 -1.0
      vertex 0.38268343236509 6.123233995736766e-17 -0.9238795325112866
      vertex 0.36395357202901457 -0.30901699437494734 -0.8786616496665794
    endloop
  endfacet
  facet normal 0.192778234176948 -0.15350012233573546 -0.9691616299000555
    outer loop
      vertex -1.8369701987210297e-16 6.123233995736766e-17 -1.0
      vertex 0.36395357202901457 -0.30901699437494734 -0.8786616496665794
      vertex -1.7470624777336386e-16 -0.30901699437494734 -0.9510565162951536
    endloop
  endfacet
  facet normal 0.548985963916448 -0.15350012233573557 -0.8216155572198245
    outer loop
      vertex 0.38268343236509 6.123233995736766e-17 -0.9238795325112866
      vertex 0.7071067811865474 6.123233995736766e-17 -0.7071067811865477
      vertex 0.6724985119639572 -0.30901699437494734 -0.6724985119639575
    endloop
  endfacet
  facet normal 0.5489859639164484 -0.15350012233573526 -0.8216155572198243
    outer loop
      vertex 0.38268343236509 6.123233995736766e-17 -0.9238795325112866
      vertex 0.6724985119639572 -0.30901699437494734 -0.6724985119639575
      vertex 0.36395357202901457 -0.30901699437494734 -0.8786616496665794
    endloop
  endfacet
  facet normal 0.8216155572198242 -0.15350012233573543 -0.5489859639164485
    outer loop
      vertex 0.7071067811865474 6.123233995736766e-17 -0.7071067811865477
      vertex 0.9238795325112865 6.123233995736766e-17 -0.3826834323650904
      vertex 0.8786616496665793 -0.30901699437494734 -0.3639535720290149
    endloop
  endfacet
  facet normal 0.821615557219824 -0.15350012233573568 -0.5489859639164487
    outer loop
      vertex 0.7071067811865474 6.123233995736766e-17 -0.7071067811865477
      vertex 0.8786616496665793 -0.30901699437494734 -0.3639535720290149
      vertex 0.6724985119639572 -0.30901699437494734 -0.6724985119639575
    endloop
  endfacet
  facet normal 0.9691616299000554 -0.15350012233573546 -0.19277823417694837
    outer loop
      vertex 0.9238795325112865 6.123233995736766e-17 -0.3826834323650904
      vertex 1.0 6.123233995736766e-17 -2.4492935982947064e-16
      vertex 0.9510565162951536 -0.30901699437494734 -2.329416636978185e-16
    endloop
  endfacet
  facet normal 0.9691616299000554 -0.15350012233573535 -0.19277823417694828
    outer loop
      vertex 0.9238795325112865 6.123233995736766e-17 -0.3826834323650904
      vertex 0.9510565162951536 -0.30901699437494734 -2.329416636978185e-16
      vertex 0.8786616496665793 -0.30901699437494734 -0.3639535720290149
    endloop
  endfacet
  facet normal 0.8773339796624317 -0.4470239903442367 0.1745125788772709
    outer loop
      vertex 0.9510565162951536 -0.30901699437494734 0.0
      vertex 0.8786616496665796 -0.30901699437494734 0.36395357202901435
      vertex 0.7474342425568128 -0.587785252292473 0.30959740024909344
    endloop
  endfacet
  facet normal 0.8773339796624318 -0.44702399034423673 0.17451257887727095
    outer loop
      vertex 0.9510565162951536 -0.30901699437494734 0.0
      vertex 0.7474342425568128 -0.587785252292473 0.30959740024909344
      vertex 0.8090169943749475 -0.587785252292473 0.0
    endloop
  endfacet
  facet normal 0.7437678343111566 -0.4470239903442366 0.49696977845821566
    outer loop
      vertex 0.8786616496665796 -0.30901699437494734 0.36395357202901435
      vertex 0.6724985119639574 -0.30901699437494734 0.6724985119639573
      vertex 0.5720614028176844 -0.587785252292473 0.5720614028176843
    endloop
  endfacet
  facet normal 0.7437678343111566 -0.4470239903442367 0.4969697784582155
    outer loop
      vertex 0.8786616496665796 -0.30901699437494734 0.36395357202901435
      vertex 0.5720614028176844 -0.587785252292473 0.5720614028176843
      vertex 0.7474342425568128 -0.587785252292473 0.30959740024909344
    endloop
  endfacet
  facet normal 0.49696977845821577 -0.4470239903442367 0.7437678343111565
    outer loop
      vertex 0.6724985119639574 -0.30901699437494734 0.6724985119639573
      vertex 0.3639535720290144 -0.30901699437494734 0.8786616496665796
      vertex 0.3095974002490935 -0.587785252292473 0.7474342425568128
    endloop
  endfacet
  facet normal 0.49696977845821566 -0.44702399034423657 0.7437678343111566
    outer loop
      vertex 0.6724985119639574 -0.30901699437494734 0.6724985119639573
      vertex 0.3095974002490935 -0.587785252292473 0.7474342425568128
      vertex 0.5720614028176844 -0.587785252292473 0.5720614028176843
    endloop
  endfacet
  facet normal 0.1745125788772709 -0.4470239903442367 0.8773339796624317
    outer loop
      vertex 0.3639535720290144 -0.30901699437494734 0.8786616496665796
      vertex 5.823541592445463e-17 -0.30901699437494734 0.9510565162951536
      vertex 4.953800363085458e-17 -0.587785252292473 0.8090169943749475
    endloop
  endfacet
  facet normal 0.17451257887727087 -0.4470239903442367 0.8773339796624318
    outer loop
      vertex 0.3639535720290144 -0.30901699437494734 0.8786616496665796
      vertex 4.953800363085458e-17 -0.587785252292473 0.8090169943749475
      vertex 0.3095974002490935 -0.587785252292473 0.7474342425568128
    endloop
  endfacet
  facet normal -0.1745125788772709 -0.4470239903442367 0.8773339796624317
    outer loop
      vertex 5.823541592445463e-17 -0.30901699437494734 0.9510565162951536
      vertex -0.3639535720290143 -0.30901699437494734 0.8786616496665796
      vertex -0.3095974002490934 -0.587785252292473 0.7474342425568128
    endloop
  endfacet
  facet normal -0.17451257887727095 -0.44702399034423673 0.8773339796624318
    outer loop
      vertex 5.823541592445463e-17 -0.30901699437494734 0.9510565162951536
      vertex -0.3095974002490934 -0.587785252292473 0.7474342425568128
      vertex 4.953800363085458e-17 -0.587785252292473 0.8090169943749475
    endloop
  endfacet
  facet normal -0.49696977845821555 -0.44702399034423657 0.7437678343111566
    outer loop
      vertex -0.3639535720290143 -0.30901699437494734 0.8786616496665796
      vertex -0.6724985119639573 -0.30901699437494734 0.6724985119639574
      vertex -0.5720614028176843 -0.587785252292473 0.5720614028176844
    endloop
  endfacet
  facet normal -0.4969697784582154 -0.44702399034423673 0.7437678343111566
    outer loop
      vertex -0.3639535720290143 -0.30901699437494734 0.8786616496665796
      vertex -0.5720614028176843 -0.587785252292473 0.5720614028176844
      vertex -0.3095974002490934 -0.587785252292473 0.7474342425568128
    endloop
  endfacet
  facet normal -0.7437678343111563 -0.44702399034423673 0.49696977845821577
    outer loop
      vertex -0.6724985119639573 -0.30901699437494734 0.6724985119639574
      vertex -0.8786616496665796 -0.30901699437494734 0.36395357202901446
      vertex -0.7474342425568128 -0.587785252292473 0.3095974002490935
    endloop
  endfacet
  facet normal -0.7437678343111566 -0.44702399034423657 0.49696977845821566
    outer loop
      vertex -0.6724985119639573 -0.30901699437494734 0.6724985119639574
      vertex -0.7474342425568128 -0.587785252292473 0.3095974002490935
      vertex -0.5720614028176843 -0.587785252292473 0.5720614028176844
    endloop
  endfacet
  facet normal -0.8773339796624317 -0.4470239903442367 0.1745125788772709
    outer loop
      vertex -0.8786616496665796 -0.30901699437494734 0.36395357202901446
      vertex -0.9510565162951536 -0.30901699437494734 1.1647083184890926e-16
      vertex -0.8090169943749475 -0.587785252292473 9.907600726170916e-17
    endloop
  endfacet
  facet normal -0.8773339796624318 -0.44702399034423673 0.1745125788772709
    outer loop
      vertex -0.8786616496665796 -0.30901699437494734 0.36395357202901446
      vertex -0.8090169943749475 -0.587785252292473 9.907600726170916e-17
      vertex -0.7474342425568128 -0.587785252292473 0.3095974002490935
    endloop
  endfacet
  facet normal -0.8773339796624317 -0.4470239903442367 -0.1745125788772709
    outer loop
      vertex -0.9510565162951536 -0.30901699437494734 1.1647083184890926e-16
      vertex -0.8786616496665796 -0.30901699437494734 -0.36395357202901424
      vertex -0.7474342425568128 -0.587785252292473 -0.3095974002490933
    endloop
  endfacet
  facet normal -0.8773339796624318 -0.4470239903442367 -0.17451257887727095
    outer loop
      vertex -0.9510565162951536 -0.30901699437494734 1.1647083184890926e-16
      vertex -0.7474342425568128 -0.587785252292473 -0.3095974002490933
      vertex -0.8090169943749475 -0.587785252292473 9.907600726170916e-17
    endloop
  endfacet
  facet normal -0.7437678343111567 -0.44702399034423657 -0.4969697784582153
    outer loop
      vertex -0.8786616496665796 -0.30901699437494734 -0.36395357202901424
      vertex -0.6724985119639575 -0.30901699437494734 -0.6724985119639573
      vertex -0.5720614028176845 -0.587785252292473 -0.5720614028176843
    endloop
  endfacet
  facet normal -0.7437678343111568 -0.44702399034423673 -0.4969697784582151
    outer loop
      vertex -0.8786616496665796 -0.30901699437494734 -0.36395357202901424
      vertex -0.5720614028176845 -0.587785252292473 -0.5720614028176843
      vertex -0.7474342425568128 -0.587785252292473 -0.3095974002490933
    endloop
  endfacet
  facet normal -0.4969697784582157 -0.4470239903442368 -0.7437678343111563
    outer loop
      vertex -0.6724985119639575 -0.30901699437494734 -0.6724985119639573
      vertex -0.36395357202901485 -0.30901699437494734 -0.8786616496665793
      vertex -0.3095974002490939 -0.587785252292473 -0.7474342425568126
    endloop
  endfacet
  facet normal -0.4969697784582156 -0.44702399034423657 -0.7437678343111565
    outer loop
      vertex -0.6724985119639575 -0.30901699437494734 -0.6724985119639573
      vertex -0.3095974002490939 -0.587785252292473 -0.7474342425568126
      vertex -0.5720614028176845 -0.587785252292473 -0.5720614028176843
    endloop
  endfacet
  facet normal -0.17451257887727126 -0.4470239903442367 -0.8773339796624315
    outer loop
      vertex -0.36395357202901485 -0.30901699437494734 -0.8786616496665793
      vertex -1.7470624777336386e-16 -0.30901699437494734 -0.9510565162951536
      vertex -1.4861401089256373e-16 -0.587785252292473 -0.8090169943749475
    endloop
  endfacet
  facet normal -0.1745125788772713 -0.44702399034423673 -0.8773339796624317
    outer loop
      vertex -0.36395357202901485 -0.30901699437494734 -0.8786616496665793
      vertex -1.4861401089256373e-16 -0.587785252292473 -0.8090169943749475
      vertex -0.3095974002490939 -0.587785252292473 -0.7474342425568126
    endloop
  endfacet
  facet normal 0.17451257887727098 -0.44702399034423673 -0.8773339796624317
    outer loop
      vertex -1.7470624777336386e-16 -0.30901699437494734 -0.9510565162951536
      vertex 0.36395357202901457 -0.30901699437494734 -0.8786616496665794
      vertex 0.3095974002490936 -0.587785252292473 -0.7474342425568127
    endloop
  endfacet
  facet normal 0.17451257887727106 -0.44702399034423673 -0.8773339796624315
    outer loop
      vertex -1.7470624777336386e-16 -0.30901699437494734 -0.9510565162951536
      vertex 0.3095974002490936 -0.587785252292473 -0.7474342425568127
      vertex -1.4861401089256373e-16 -0.587785252292473 -0.8090169943749475
    endloop
  endfacet
  facet normal 0.49696977845821566 -0.4470239903442366 -0.7437678343111566
    outer loop
      vertex 0.36395357202901457 -0.30901699437494734 -0.8786616496665794
      vertex 0.6724985119639572 -0.30901699437494734 -0.6724985119639575
      vertex 0.5720614028176841 -0.587785252292473 -0.5720614028176845
    endloop
  endfacet
  facet normal 0.4969697784582155 -0.4470239903442369 -0.7437678343111566
    outer loop
      vertex 0.36395357202901457 -0.30901699437494734 -0.8786616496665794
      vertex 0.5720614028176841 -0.587785252292473 -0.5720614028176845
      vertex 0.3095974002490936 -0.587785252292473 -0.7474342425568127
    endloop
  endfacet
  facet normal 0.7437678343111561 -0.4470239903442368 -0.49696977845821594
    outer loop
      vertex 0.6724985119639572 -0.30901699437494734 -0.6724985119639575
      vertex 0.8786616496665793 -0.30901699437494734 -0.3639535720290149
      vertex 0.7474342425568126 -0.587785252292473 -0.30959740024909393
    endloop
  endfacet
  facet normal 0.7437678343111563 -0.4470239903442366 -0.49696977845821594
    outer loop
      vertex 0.6724985119639572 -0.30901699437494734 -0.6724985119639575
      vertex 0.7474342425568126 -0.587785252292473 -0.30959740024909393
      vertex 0.5720614028176841 -0.587785252292473 -0.5720614028176845
    endloop
  endfacet
  facet normal 0.8773339796624315 -0.4470239903442367 -0.17451257887727126
    outer loop
      vertex 0.8786616496665793 -0.30901699437494734 -0.3639535720290149
      vertex 0.9510565162951536 -0.30901699437494734 -2.329416636978185e-16
      vertex 0.8090169943749475 -0.587785252292473 -1.9815201452341832e-16
    endloop
  endfacet
  facet normal 0.8773339796624317 -0.44702399034423673 -0.1745125788772713
    outer loop
      vertex 0.8786616496665793 -0.30901699437494734 -0.3639535720290149
      vertex 0.8090169943749475 -0.587785252292473 -1.9815201452341832e-16
      vertex 0.7474342425568126 -0.587785252292473 -0.30959740024909393
    endloop
  endfacet
  facet normal 0.7002145072825532 -0.700214507282553 0.13928132531715337
    outer loop
      vertex 0.8090169943749475 -0.587785252292473 0.0
      vertex 0.7474342425568128 -0.587785252292473 0.30959740024909344
      vertex 0.543042764104999 -0.8090169943749473 0.2249356778408639
    endloop
  endfacet
  facet normal 0.7002145072825532 -0.7002145072825529 0.1392813253171533
    outer loop
      vertex 0.8090169943749475 -0.587785252292473 0.0
      vertex 0.543042764104999 -0.8090169943749473 0.2249356778408639
      vertex 0.5877852522924732 -0.8090169943749473 0.0
    endloop
  endfacet
  facet normal 0.5936131960090993 -0.7002145072825529 0.3966396567602819
    outer loop
      vertex 0.7474342425568128 -0.587785252292473 0.30959740024909344
      vertex 0.5720614028176844 -0.587785252292473 0.5720614028176843
      vertex 0.4156269377774535 -0.8090169943749473 0.41562693777745346
    endloop
  endfacet
  facet normal 0.5936131960090993 -0.700214507282553 0.39663965676028184
    outer loop
      vertex 0.7474342425568128 -0.587785252292473 0.30959740024909344
      vertex 0.4156269377774535 -0.8090169943749473 0.41562693777745346
      vertex 0.543042764104999 -0.8090169943749473 0.2249356778408639
    endloop
  endfacet
  facet normal 0.396639656760282 -0.700214507282553 0.5936131960090992
    outer loop
      vertex 0.5720614028176844 -0.587785252292473 0.5720614028176843
      vertex 0.3095974002490935 -0.587785252292473 0.7474342425568128
      vertex 0.22493567784086396 -0.8090169943749473 0.543042764104999
    endloop
  endfacet
  facet normal 0.396639656760282 -0.7002145072825529 0.5936131960090992
    outer loop
      vertex 0.5720614028176844 -0.587785252292473 0.5720614028176843
      vertex 0.22493567784086396 -0.8090169943749473 0.543042764104999
      vertex 0.4156269377774535 -0.8090169943749473 0.41562693777745346
    endloop
  endfacet
  facet normal 0.13928132531715337 -0.700214507282553 0.7002145072825532
    outer loop
      vertex 0.3095974002490935 -0.587785252292473 0.7474342425568128
      vertex 4.953800363085458e-17 -0.587785252292473 0.8090169943749475
      vertex 3.599146639029984e-17 -0.8090169943749473 0.5877852522924732
    endloop
  endfacet
  facet normal 0.13928132531715343 -0.7002145072825531 0.7002145072825532
    outer loop
      vertex 0.3095974002490935 -0.587785252292473 0.7474342425568128
      vertex 3.599146639029984e-17 -0.8090169943749473 0.5877852522924732
      vertex 0.22493567784086396 -0.8090169943749473 0.543042764104999
    endloop
  endfacet
  facet normal -0.13928132531715337 -0.700214507282553 0.7002145072825532
    outer loop
      vertex 4.953800363085458e-17 -0.587785252292473 0.8090169943749475
      vertex -0.3095974002490934 -0.587785252292473 0.7474342425568128
      vertex -0.22493567784086388 -0.8090169943749473 0.543042764104999
    endloop
  endfacet
  facet normal -0.1392813253171533 -0.7002145072825529 0.7002145072825533
    outer loop
      vertex 4.953800363085458e-17 -0.587785252292473 0.8090169943749475
      vertex -0.22493567784086388 -0.8090169943749473 0.543042764104999
      vertex 3.599146639029984e-17 -0.8090169943749473 0.5877852522924732
    endloop
  endfacet
  facet normal -0.39663965676028184 -0.7002145072825531 0.5936131960090993
    outer loop
      vertex -0.3095974002490934 -0.587785252292473 0.7474342425568128
      vertex -0.5720614028176843 -0.587785252292473 0.5720614028176844
      vertex -0.41562693777745346 -0.8090169943749473 0.4156269377774535
    endloop
  endfacet
  facet normal -0.39663965676028184 -0.7002145072825531 0.5936131960090993
    outer loop
      vertex -0.3095974002490934 -0.587785252292473 0.7474342425568128
      vertex -0.41562693777745346 -0.8090169943749473 0.4156269377774535
      vertex -0.22493567784086388 -0.8090169943749473 0.543042764104999
    endloop
  endfacet
  facet normal -0.5936131960090992 -0.700214507282553 0.396639656760282
    outer loop
      vertex -0.5720614028176843 -0.587785252292473 0.5720614028176844
      vertex -0.7474342425568128 -0.587785252292473 0.3095974002490935
      vertex -0.543042764104999 -0.8090169943749473 0.224935677840864
    endloop
  endfacet
  facet normal -0.5936131960090992 -0.7002145072825529 0.396639656760282
    outer loop
      vertex -0.5720614028176843 -0.587785252292473 0.5720614028176844
      vertex -0.543042764104999 -0.8090169943749473 0.224935677840864
      vertex -0.41562693777745346 -0.8090169943749473 0.4156269377774535
    endloop
  endfacet
  facet normal -0.7002145072825533 -0.7002145072825529 0.1392813253171534
    outer loop
      vertex -0.7474342425568128 -0.587785252292473 0.3095974002490935
      vertex -0.8090169943749475 -0.587785252292473 9.907600726170916e-17
      vertex -0.5877852522924732 -0.8090169943749473 7.198293278059968e-17
    endloop
  endfacet
  facet normal -0.7002145072825533 -0.7002145072825529 0.1392813253171534
    outer loop
      vertex -0.7474342425568128 -0.587785252292473 0.3095974002490935
      vertex -0.5877852522924732 -0.8090169943749473 7.198293278059968e-17
      vertex -0.543042764104999 -0.8090169943749473 0.224935677840864
    endloop
  endfacet
  facet normal -0.7002145072825532 -0.700214507282553 -0.13928132531715337
    outer loop
      vertex -0.8090169943749475 -0.587785252292473 9.907600726170916e-17
      vertex -0.7474342425568128 -0.587785252292473 -0.3095974002490933
      vertex -0.543042764104999 -0.8090169943749473 -0.22493567784086385
    endloop
  endfacet
  facet normal -0.7002145072825533 -0.7002145072825529 -0.1392813253171533
    outer loop
      vertex -0.8090169943749475 -0.587785252292473 9.907600726170916e-17
      vertex -0.543042764104999 -0.8090169943749473 -0.22493567784086385
      vertex -0.5877852522924732 -0.8090169943749473 7.198293278059968e-17
    endloop
  endfacet
  facet normal -0.5936131960090996 -0.700214507282553 -0.3966396567602816
    outer loop
      vertex -0.7474342425568128 -0.587785252292473 -0.3095974002490933
      vertex -0.5720614028176845 -0.587785252292473 -0.5720614028176843
      vertex -0.41562693777745363 -0.8090169943749473 -0.41562693777745346
    endloop
  endfacet
  facet normal -0.5936131960090996 -0.7002145072825529 -0.3966396567602817
    outer loop
      vertex -0.7474342425568128 -0.587785252292473 -0.3095974002490933
      vertex -0.41562693777745363 -0.8090169943749473 -0.41562693777745346
      vertex -0.543042764104999 -0.8090169943749473 -0.22493567784086385
    endloop
  endfacet
  facet normal -0.3966396567602819 -0.7002145072825531 -0.5936131960090992
    outer loop
      vertex -0.5720614028176845 -0.587785252292473 -0.5720614028176843
      vertex -0.3095974002490939 -0.587785252292473 -0.7474342425568126
      vertex -0.22493567784086424 -0.8090169943749473 -0.5430427641049987
    endloop
  endfacet
  facet normal -0.39663965676028173 -0.7002145072825529 -0.5936131960090993
    outer loop
      vertex -0.5720614028176845 -0.587785252292473 -0.5720614028176843
      vertex -0.22493567784086424 -0.8090169943749473 -0.5430427641049987
      vertex -0.41562693777745363 -0.8090169943749473 -0.41562693777745346
    endloop
  endfacet
  facet normal -0.13928132531715373 -0.700214507282553 -0.7002145072825533
    outer loop
      vertex -0.3095974002490939 -0.587785252292473 -0.7474342425568126
      vertex -1.4861401089256373e-16 -0.587785252292473 -0.8090169943749475
      vertex -1.0797439917089951e-16 -0.8090169943749473 -0.5877852522924732
    endloop
  endfacet
  facet normal -0.1392813253171539 -0.7002145072825531 -0.7002145072825532
    outer loop
      vertex -0.3095974002490939 -0.587785252292473 -0.7474342425568126
      vertex -1.0797439917089951e-16 -0.8090169943749473 -0.5877852522924732
      vertex -0.22493567784086424 -0.8090169943749473 -0.5430427641049987
    endloop
  endfacet
  facet normal 0.13928132531715348 -0.7002145072825529 -0.7002145072825533
    outer loop
      vertex -1.4861401089256373e-16 -0.587785252292473 -0.8090169943749475
      vertex 0.3095974002490936 -0.587785252292473 -0.7474342425568127
      vertex 0.22493567784086405 -0.8090169943749473 -0.5430427641049989
    endloop
  endfacet
  facet normal 0.13928132531715354 -0.7002145072825529 -0.7002145072825533
    outer loop
      vertex -1.4861401089256373e-16 -0.587785252292473 -0.8090169943749475
      vertex 0.22493567784086405 -0.8090169943749473 -0.5430427641049989
      vertex -1.0797439917089951e-16 -0.8090169943749473 -0.5877852522924732
    endloop
  endfacet
  facet normal 0.39663965676028184 -0.700214507282553 -0.5936131960090993
    outer loop
      vertex 0.3095974002490936 -0.587785252292473 -0.7474342425568127
      vertex 0.5720614028176841 -0.587785252292473 -0.5720614028176845
      vertex 0.4156269377774534 -0.8090169943749473 -0.41562693777745363
    endloop
  endfacet
  facet normal 0.3966396567602817 -0.700214507282553 -0.5936131960090993
    outer loop
      vertex 0.3095974002490936 -0.587785252292473 -0.7474342425568127
      vertex 0.4156269377774534 -0.8090169943749473 -0.41562693777745363
      vertex 0.22493567784086405 -0.8090169943749473 -0.5430427641049989
    endloop
  endfacet
  facet normal 0.5936131960090991 -0.7002145072825531 -0.3966396567602822
    outer loop
      vertex 0.5720614028176841 -0.587785252292473 -0.5720614028176845
      vertex 0.7474342425568126 -0.587785252292473 -0.30959740024909393
      vertex 0.5430427641049987 -0.8090169943749473 -0.22493567784086427
    endloop
  endfacet
  facet normal 0.5936131960090993 -0.700214507282553 -0.39663965676028207
    outer loop
      vertex 0.5720614028176841 -0.587785252292473 -0.5720614028176845
      vertex 0.5430427641049987 -0.8090169943749473 -0.22493567784086427
      vertex 0.4156269377774534 -0.8090169943749473 -0.41562693777745363
    endloop
  endfacet
  facet normal 0.7002145072825533 -0.700214507282553 -0.13928132531715373
    outer loop
      vertex 0.7474342425568126 -0.587785252292473 -0.30959740024909393
      vertex 0.8090169943749475 -0.587785252292473 -1.9815201452341832e-16
      vertex 0.5877852522924732 -0.8090169943749473 -1.4396586556119935e-16
    endloop
  endfacet
  facet normal 0.7002145072825532 -0.7002145072825531 -0.13928132531715393
    outer loop
      vertex 0.7474342425568126 -0.587785252292473 -0.30959740024909393
      vertex 0.5877852522924732 -0.8090169943749473 -1.4396586556119935e-16
      vertex 0.5430427641049987 -0.8090169943749473 -0.22493567784086427
    endloop
  endfacet
  facet normal 0.4521506280517345 -0.887395572685086 0.08993835183796964
    outer loop
      vertex 0.5877852522924732 -0.8090169943749473 0.0
      vertex 0.543042764104999 -0.8090169943749473 0.2249356778408639
      vertex 0.2854944763011694 -0.9510565162951535 0.11825568406654856
    endloop
  endfacet
  facet normal 0.4521506280517345 -0.887395572685086 0.08993835183796971
    outer loop
      vertex 0.5877852522924732 -0.8090169943749473 0.0
      vertex 0.2854944763011694 -0.9510565162951535 0.11825568406654856
      vertex 0.3090169943749475 -0.9510565162951535 0.0
    endloop
  endfacet
  facet normal 0.38331479368650784 -0.887395572685086 0.25612275673976803
    outer loop
      vertex 0.543042764104999 -0.8090169943749473 0.2249356778408639
      vertex 0.4156269377774535 -0.8090169943749473 0.41562693777745346
      vertex 0.2185080122244106 -0.9510565162951535 0.21850801222441057
    endloop
  endfacet
  facet normal 0.3833147936865078 -0.887395572685086 0.2561227567397679
    outer loop
      vertex 0.543042764104999 -0.8090169943749473 0.2249356778408639
      vertex 0.2185080122244106 -0.9510565162951535 0.21850801222441057
      vertex 0.2854944763011694 -0.9510565162951535 0.11825568406654856
    endloop
  endfacet
  facet normal 0.25612275673976803 -0.887395572685086 0.38331479368650767
    outer loop
      vertex 0.4156269377774535 -0.8090169943749473 0.41562693777745346
      vertex 0.22493567784086396 -0.8090169943749473 0.543042764104999
      vertex 0.11825568406654857 -0.9510565162951535 0.2854944763011694
    endloop
  endfacet
  facet normal 0.256122756739768 -0.887395572685086 0.3833147936865078
    outer loop
      vertex 0.4156269377774535 -0.8090169943749473 0.41562693777745346
      vertex 0.11825568406654857 -0.9510565162951535 0.2854944763011694
      vertex 0.2185080122244106 -0.9510565162951535 0.21850801222441057
    endloop
  endfacet
  facet normal 0.08993835183796964 -0.887395572685086 0.4521506280517345
    outer loop
      vertex 0.22493567784086396 -0.8090169943749473 0.543042764104999
      vertex 3.599146639029984e-17 -0.8090169943749473 0.5877852522924732
      vertex 1.8921833652170756e-17 -0.9510565162951535 0.3090169943749475
    endloop
  endfacet
  facet normal 0.08993835183796973 -0.8873955726850861 0.4521506280517345
    outer loop
      vertex 0.22493567784086396 -0.8090169943749473 0.543042764104999
      vertex 1.8921833652170756e-17 -0.9510565162951535 0.3090169943749475
      vertex 0.11825568406654857 -0.9510565162951535 0.2854944763011694
    endloop
  endfacet
  facet normal -0.08993835183796964 -0.887395572685086 0.4521506280517345
    outer loop
      vertex 3.599146639029984e-17 -0.8090169943749473 0.5877852522924732
      vertex -0.22493567784086388 -0.8090169943749473 0.543042764104999
      vertex -0.11825568406654853 -0.9510565162951535 0.2854944763011694
    endloop
  endfacet
  facet normal -0.08993835183796971 -0.887395572685086 0.4521506280517345
    outer loop
      vertex 3.599146639029984e-17 -0.8090169943749473 0.5877852522924732
      vertex -0.11825568406654853 -0.9510565162951535 0.2854944763011694
      vertex 1.8921833652170756e-17 -0.9510565162951535 0.3090169943749475
    endloop
  endfacet
  facet normal -0.25612275673976803 -0.887395572685086 0.3833147936865079
    outer loop
      vertex -0.22493567784086388 -0.8090169943749473 0.543042764104999
      vertex -0.41562693777745346 -0.8090169943749473 0.4156269377774535
      vertex -0.21850801222441057 -0.9510565162951535 0.2185080122244106
    endloop
  endfacet
  facet normal -0.25612275673976787 -0.887395572685086 0.38331479368650784
    outer loop
      vertex -0.22493567784086388 -0.8090169943749473 0.543042764104999
      vertex -0.21850801222441057 -0.9510565162951535 0.2185080122244106
      vertex -0.11825568406654853 -0.9510565162951535 0.2854944763011694
    endloop
  endfacet
  facet normal -0.3833147936865077 -0.887395572685086 0.2561227567397681
    outer loop
      vertex -0.41562693777745346 -0.8090169943749473 0.4156269377774535
      vertex -0.543042764104999 -0.8090169943749473 0.224935677840864
      vertex -0.2854944763011694 -0.9510565162951535 0.11825568406654859
    endloop
  endfacet
  facet normal -0.3833147936865078 -0.887395572685086 0.256122756739768
    outer loop
      vertex -0.41562693777745346 -0.8090169943749473 0.4156269377774535
      vertex -0.2854944763011694 -0.9510565162951535 0.11825568406654859
      vertex -0.21850801222441057 -0.9510565162951535 0.2185080122244106
    endloop
  endfacet
  facet normal -0.4521506280517346 -0.887395572685086 0.08993835183796965
    outer loop
      vertex -0.543042764104999 -0.8090169943749473 0.224935677840864
      vertex -0.5877852522924732 -0.8090169943749473 7.198293278059968e-17
      vertex -0.3090169943749475 -0.9510565162951535 3.784366730434151e-17
    endloop
  endfacet
  facet normal -0.4521506280517345 -0.887395572685086 0.08993835183796971
    outer loop
      vertex -0.543042764104999 -0.8090169943749473 0.224935677840864
      vertex -0.3090169943749475 -0.9510565162951535 3.784366730434151e-17
      vertex -0.2854944763011694 -0.9510565162951535 0.11825568406654859
    endloop
  endfacet
  facet normal -0.4521506280517346 -0.887395572685086 -0.08993835183796965
    outer loop
      vertex -0.5877852522924732 -0.8090169943749473 7.198293278059968e-17
      vertex -0.543042764104999 -0.8090169943749473 -0.22493567784086385
      vertex -0.2854944763011695 -0.9510565162951535 -0.11825568406654852
    endloop
  endfacet
  facet normal -0.4521506280517345 -0.887395572685086 -0.08993835183796953
    outer loop
      vertex -0.5877852522924732 -0.8090169943749473 7.198293278059968e-17
      vertex -0.2854944763011695 -0.9510565162951535 -0.11825568406654852
      vertex -0.3090169943749475 -0.9510565162951535 3.784366730434151e-17
    endloop
  endfacet
  facet normal -0.38331479368650795 -0.887395572685086 -0.2561227567397678
    outer loop
      vertex -0.543042764104999 -0.8090169943749473 -0.22493567784086385
      vertex -0.41562693777745363 -0.8090169943749473 -0.41562693777745346
      vertex -0.21850801222441063 -0.9510565162951535 -0.21850801222441057
    endloop
  endfacet
  facet normal -0.3833147936865079 -0.887395572685086 -0.25612275673976803
    outer loop
      vertex -0.543042764104999 -0.8090169943749473 -0.22493567784086385
      vertex -0.21850801222441063 -0.9510565162951535 -0.21850801222441057
      vertex -0.2854944763011695 -0.9510565162951535 -0.11825568406654852
    endloop
  endfacet
  facet normal -0.2561227567397679 -0.8873955726850858 -0.3833147936865079
    outer loop
      vertex -0.41562693777745363 -0.8090169943749473 -0.41562693777745346
      vertex -0.22493567784086424 -0.8090169943749473 -0.5430427641049987
      vertex -0.11825568406654872 -0.9510565162951535 -0.28549447630116936
    endloop
  endfacet
  facet normal -0.2561227567397681 -0.887395572685086 -0.3833147936865078
    outer loop
      vertex -0.41562693777745363 -0.8090169943749473 -0.41562693777745346
      vertex -0.11825568406654872 -0.9510565162951535 -0.28549447630116936
      vertex -0.21850801222441063 -0.9510565162951535 -0.21850801222441057
    endloop
  endfacet
  facet normal -0.08993835183797 -0.8873955726850858 -0.45215062805173445
    outer loop
      vertex -0.22493567784086424 -0.8090169943749473 -0.5430427641049987
      vertex -1.0797439917089951e-16 -0.8090169943749473 -0.5877852522924732
      vertex -5.676550095651227e-17 -0.9510565162951535 -0.3090169943749475
    endloop
  endfacet
  facet normal -0.08993835183797 -0.8873955726850858 -0.4521506280517345
    outer loop
      vertex -0.22493567784086424 -0.8090169943749473 -0.5430427641049987
      vertex -5.676550095651227e-17 -0.9510565162951535 -0.3090169943749475
      vertex -0.11825568406654872 -0.9510565162951535 -0.28549447630116936
    endloop
  endfacet
  facet normal 0.08993835183796976 -0.8873955726850858 -0.4521506280517345
    outer loop
      vertex -1.0797439917089951e-16 -0.8090169943749473 -0.5877852522924732
      vertex 0.22493567784086405 -0.8090169943749473 -0.5430427641049989
      vertex 0.11825568406654863 -0.9510565162951535 -0.28549447630116936
    endloop
  endfacet
  facet normal 0.08993835183796998 -0.8873955726850858 -0.45215062805173456
    outer loop
      vertex -1.0797439917089951e-16 -0.8090169943749473 -0.5877852522924732
      vertex 0.11825568406654863 -0.9510565162951535 -0.28549447630116936
      vertex -5.676550095651227e-17 -0.9510565162951535 -0.3090169943749475
    endloop
  endfacet
  facet normal 0.2561227567397678 -0.8873955726850858 -0.38331479368650784
    outer loop
      vertex 0.22493567784086405 -0.8090169943749473 -0.5430427641049989
      vertex 0.4156269377774534 -0.8090169943749473 -0.41562693777745363
      vertex 0.21850801222441055 -0.9510565162951535 -0.21850801222441063
    endloop
  endfacet
  facet normal 0.2561227567397678 -0.887395572685086 -0.3833147936865079
    outer loop
      vertex 0.22493567784086405 -0.8090169943749473 -0.5430427641049989
      vertex 0.21850801222441055 -0.9510565162951535 -0.21850801222441063
      vertex 0.11825568406654863 -0.9510565162951535 -0.28549447630116936
    endloop
  endfacet
  facet normal 0.3833147936865077 -0.8873955726850858 -0.256122756739768
    outer loop
      vertex 0.4156269377774534 -0.8090169943749473 -0.41562693777745363
      vertex 0.5430427641049987 -0.8090169943749473 -0.22493567784086427
      vertex 0.28549447630116936 -0.9510565162951535 -0.11825568406654874
    endloop
  endfacet
  facet normal 0.38331479368650767 -0.8873955726850858 -0.25612275673976814
    outer loop
      vertex 0.4156269377774534 -0.8090169943749473 -0.41562693777745363
      vertex 0.28549447630116936 -0.9510565162951535 -0.11825568406654874
      vertex 0.21850801222441055 -0.9510565162951535 -0.21850801222441063
    endloop
  endfacet
  facet normal 0.45215062805173445 -0.8873955726850858 -0.08993835183797
    outer loop
      vertex 0.5430427641049987 -0.8090169943749473 -0.22493567784086427
      vertex 0.5877852522924732 -0.8090169943749473 -1.4396586556119935e-16
      vertex 0.3090169943749475 -0.9510565162951535 -7.568733460868302e-17
    endloop
  endfacet
  facet normal 0.45215062805173456 -0.8873955726850858 -0.08993835183797001
    outer loop
      vertex 0.5430427641049987 -0.8090169943749473 -0.22493567784086427
      vertex 0.3090169943749475 -0.9510565162951535 -7.568733460868302e-17
      vertex 0.28549447630116936 -0.9510565162951535 -0.11825568406654874
    endloop
  endfacet
  facet normal 0.1563587859921298 -0.9872105218905594 0.03110169628230386
    outer loop
      vertex 0.2854944763011694 -0.9510565162951535 0.11825568406654856
      vertex 1.1314261122877003e-16 -1.0 4.6865204053262986e-17
      vertex 0.3090169943749475 -0.9510565162951535 0.0
    endloop
  endfacet
  facet normal 0.13255457822075262 -0.9872105218905594 0.08857013752550963
    outer loop
      vertex 0.2185080122244106 -0.9510565162951535 0.21850801222441057
      vertex 8.659560562354934e-17 -1.0 8.659560562354932e-17
      vertex 0.2854944763011694 -0.9510565162951535 0.11825568406654856
    endloop
  endfacet
  facet normal 0.08857013752550966 -0.9872105218905594 0.13255457822075262
    outer loop
      vertex 0.11825568406654857 -0.9510565162951535 0.2854944763011694
      vertex 4.686520405326299e-17 -1.0 1.1314261122877003e-16
      vertex 0.2185080122244106 -0.9510565162951535 0.21850801222441057
    endloop
  endfacet
  facet normal 0.031101696282303852 -0.9872105218905594 0.15635878599212977
    outer loop
      vertex 1.8921833652170756e-17 -0.9510565162951535 0.3090169943749475
      vertex 7.498798913309288e-33 -1.0 1.2246467991473532e-16
      vertex 0.11825568406654857 -0.9510565162951535 0.2854944763011694
    endloop
  endfacet
  facet normal -0.03110169628230386 -0.9872105218905594 0.15635878599212977
    outer loop
      vertex -0.11825568406654853 -0.9510565162951535 0.2854944763011694
      vertex -4.6865204053262974e-17 -1.0 1.1314261122877003e-16
      vertex 1.8921833652170756e-17 -0.9510565162951535 0.3090169943749475
    endloop
  endfacet
  facet normal -0.08857013752550962 -0.9872105218905594 0.13255457822075262
    outer loop
      vertex -0.21850801222441057 -0.9510565162951535 0.2185080122244106
      vertex -8.659560562354932e-17 -1.0 8.659560562354934e-17
      vertex -0.11825568406654853 -0.9510565162951535 0.2854944763011694
    endloop
  endfacet
  facet normal -0.13255457822075262 -0.9872105218905594 0.08857013752550967
    outer loop
      vertex -0.2854944763011694 -0.9510565162951535 0.11825568406654859
      vertex -1.1314261122877003e-16 -1.0 4.6865204053263e-17
      vertex -0.21850801222441057 -0.9510565162951535 0.2185080122244106
    endloop
  endfacet
  facet normal -0.15635878599212977 -0.9872105218905594 0.03110169628230386
    outer loop
      vertex -0.3090169943749475 -0.9510565162951535 3.784366730434151e-17
      vertex -1.2246467991473532e-16 -1.0 1.4997597826618576e-32
      vertex -0.2854944763011694 -0.9510565162951535 0.11825568406654859
    endloop
  endfacet
  facet normal -0.1563587859921298 -0.9872105218905594 -0.03110169628230379
    outer loop
      vertex -0.2854944763011695 -0.9510565162951535 -0.11825568406654852
      vertex -1.1314261122877005e-16 -1.0 -4.686520405326297e-17
      vertex -0.3090169943749475 -0.9510565162951535 3.784366730434151e-17
    endloop
  endfacet
  facet normal -0.13255457822075262 -0.9872105218905594 -0.08857013752550964
    outer loop
      vertex -0.21850801222441063 -0.9510565162951535 -0.21850801222441057
      vertex -8.659560562354935e-17 -1.0 -8.659560562354932e-17
      vertex -0.2854944763011695 -0.9510565162951535 -0.11825568406654852
    endloop
  endfacet
  facet normal -0.08857013752550967 -0.9872105218905594 -0.13255457822075256
    outer loop
      vertex -0.11825568406654872 -0.9510565162951535 -0.28549447630116936
      vertex -4.6865204053263054e-17 -1.0 -1.1314261122877e-16
      vertex -0.21850801222441063 -0.9510565162951535 -0.21850801222441057
    endloop
  endfacet
  facet normal -0.0311016962823039 -0.9872105218905594 -0.15635878599212977
    outer loop
      vertex -5.676550095651227e-17 -0.9510565162951535 -0.3090169943749475
      vertex -2.2496396739927864e-32 -1.0 -1.2246467991473532e-16
      vertex -0.11825568406654872 -0.9510565162951535 -0.28549447630116936
    endloop
  endfacet
  facet normal 0.0311016962823039 -0.9872105218905594 -0.1563587859921298
    outer loop
      vertex 0.11825568406654863 -0.9510565162951535 -0.28549447630116936
      vertex 4.686520405326301e-17 -1.0 -1.1314261122877003e-16
      vertex -5.676550095651227e-17 -0.9510565162951535 -0.3090169943749475
    endloop
  endfacet
  facet normal 0.08857013752550963 -0.9872105218905594 -0.13255457822075262
    outer loop
      vertex 0.21850801222441055 -0.9510565162951535 -0.21850801222441063
      vertex 8.65956056235493e-17 -1.0 -8.659560562354935e-17
      vertex 0.11825568406654863 -0.9510565162951535 -0.28549447630116936
    endloop
  endfacet
  facet normal 0.13255457822075256 -0.9872105218905594 -0.08857013752550971
    outer loop
      vertex 0.28549447630116936 -0.9510565162951535 -0.11825568406654874
      vertex 1.1314261122877e-16 -1.0 -4.686520405326306e-17
      vertex 0.21850801222441055 -0.9510565162951535 -0.21850801222441063
    endloop
  endfacet
  facet normal 0.15635878599212977 -0.9872105218905594 -0.0311016962823039
    outer loop
      vertex 0.3090169943749475 -0.9510565162951535 -7.568733460868302e-17
      vertex 1.2246467991473532e-16 -1.0 -2.999519565323715e-32
      vertex 0.28549447630116936 -0.9510565162951535 -0.11825568406654874
    endloop
  endfacet
endsolid uv_sphere
